ISO-10303-21;
HEADER;
/* Generated by software containing ST-Developer
 * from STEP Tools, Inc. (www.steptools.com) 
 */

FILE_DESCRIPTION(
/* description */ (''),
/* implementation_level */ '2;1');

FILE_NAME(
/* name */ 'end_gelenk2.step',
/* time_stamp */ '2026-05-24T04:14:53+02:00',
/* author */ (''),
/* organization */ (''),
/* preprocessor_version */ 'ST-DEVELOPER v20.1',
/* originating_system */ 'Autodesk Translation Framework v15.8.0.0',
/* authorisation */ '');

FILE_SCHEMA (('AUTOMOTIVE_DESIGN { 1 0 10303 214 3 1 1 }'));
ENDSEC;

DATA;
#10=MECHANICAL_DESIGN_GEOMETRIC_PRESENTATION_REPRESENTATION('',(#13),#573);
#11=SHAPE_REPRESENTATION_RELATIONSHIP('SRR','None',#580,#12);
#12=ADVANCED_BREP_SHAPE_REPRESENTATION('',(#14),#572);
#13=STYLED_ITEM('',(#589),#14);
#14=MANIFOLD_SOLID_BREP('end_gelenk2',#321);
#15=CIRCLE('',#345,5.98);
#16=CIRCLE('',#347,5.98);
#17=CIRCLE('',#348,5.98);
#18=CIRCLE('',#349,5.98);
#19=CIRCLE('',#352,4.);
#20=CIRCLE('',#353,4.);
#21=CIRCLE('',#355,6.);
#22=CIRCLE('',#356,6.);
#23=FACE_BOUND('',#58,.T.);
#24=FACE_BOUND('',#64,.T.);
#25=FACE_BOUND('',#70,.T.);
#26=FACE_BOUND('',#71,.T.);
#27=FACE_BOUND('',#73,.T.);
#28=PLANE('',#337);
#29=PLANE('',#338);
#30=PLANE('',#339);
#31=PLANE('',#340);
#32=PLANE('',#341);
#33=PLANE('',#342);
#34=PLANE('',#343);
#35=PLANE('',#344);
#36=PLANE('',#350);
#37=PLANE('',#357);
#38=PLANE('',#358);
#39=FACE_OUTER_BOUND('',#54,.T.);
#40=FACE_OUTER_BOUND('',#55,.T.);
#41=FACE_OUTER_BOUND('',#56,.T.);
#42=FACE_OUTER_BOUND('',#57,.T.);
#43=FACE_OUTER_BOUND('',#59,.T.);
#44=FACE_OUTER_BOUND('',#60,.T.);
#45=FACE_OUTER_BOUND('',#61,.T.);
#46=FACE_OUTER_BOUND('',#62,.T.);
#47=FACE_OUTER_BOUND('',#63,.T.);
#48=FACE_OUTER_BOUND('',#65,.T.);
#49=FACE_OUTER_BOUND('',#66,.T.);
#50=FACE_OUTER_BOUND('',#67,.T.);
#51=FACE_OUTER_BOUND('',#68,.T.);
#52=FACE_OUTER_BOUND('',#69,.T.);
#53=FACE_OUTER_BOUND('',#72,.T.);
#54=EDGE_LOOP('',(#214,#215,#216,#217,#218,#219,#220,#221));
#55=EDGE_LOOP('',(#222,#223,#224,#225));
#56=EDGE_LOOP('',(#226,#227,#228,#229));
#57=EDGE_LOOP('',(#230,#231,#232,#233));
#58=EDGE_LOOP('',(#234));
#59=EDGE_LOOP('',(#235,#236,#237,#238));
#60=EDGE_LOOP('',(#239,#240,#241,#242));
#61=EDGE_LOOP('',(#243,#244,#245,#246));
#62=EDGE_LOOP('',(#247,#248,#249,#250));
#63=EDGE_LOOP('',(#251));
#64=EDGE_LOOP('',(#252,#253,#254,#255,#256,#257));
#65=EDGE_LOOP('',(#258,#259,#260,#261,#262,#263,#264,#265,#266,#267,#268,
#269,#270,#271,#272));
#66=EDGE_LOOP('',(#273,#274,#275,#276));
#67=EDGE_LOOP('',(#277,#278,#279,#280));
#68=EDGE_LOOP('',(#281,#282,#283,#284));
#69=EDGE_LOOP('',(#285,#286,#287,#288,#289));
#70=EDGE_LOOP('',(#290,#291,#292,#293,#294,#295));
#71=EDGE_LOOP('',(#296));
#72=EDGE_LOOP('',(#297,#298,#299,#300));
#73=EDGE_LOOP('',(#301));
#74=ELLIPSE('',#336,1.50114351724484,1.5);
#75=LINE('',#459,#105);
#76=LINE('',#498,#106);
#77=LINE('',#500,#107);
#78=LINE('',#502,#108);
#79=LINE('',#503,#109);
#80=LINE('',#506,#110);
#81=LINE('',#508,#111);
#82=LINE('',#509,#112);
#83=LINE('',#512,#113);
#84=LINE('',#514,#114);
#85=LINE('',#515,#115);
#86=LINE('',#518,#116);
#87=LINE('',#520,#117);
#88=LINE('',#521,#118);
#89=LINE('',#524,#119);
#90=LINE('',#526,#120);
#91=LINE('',#527,#121);
#92=LINE('',#529,#122);
#93=LINE('',#530,#123);
#94=LINE('',#534,#124);
#95=LINE('',#536,#125);
#96=LINE('',#538,#126);
#97=LINE('',#539,#127);
#98=LINE('',#544,#128);
#99=LINE('',#546,#129);
#100=LINE('',#551,#130);
#101=LINE('',#556,#131);
#102=LINE('',#557,#132);
#103=LINE('',#558,#133);
#104=LINE('',#563,#134);
#105=VECTOR('',#363,1.5);
#106=VECTOR('',#368,10.);
#107=VECTOR('',#369,10.);
#108=VECTOR('',#370,10.);
#109=VECTOR('',#371,10.);
#110=VECTOR('',#374,10.);
#111=VECTOR('',#375,10.);
#112=VECTOR('',#376,10.);
#113=VECTOR('',#379,10.);
#114=VECTOR('',#380,10.);
#115=VECTOR('',#381,10.);
#116=VECTOR('',#384,10.);
#117=VECTOR('',#385,10.);
#118=VECTOR('',#386,10.);
#119=VECTOR('',#389,10.);
#120=VECTOR('',#390,10.);
#121=VECTOR('',#391,10.);
#122=VECTOR('',#394,10.);
#123=VECTOR('',#395,10.);
#124=VECTOR('',#398,10.);
#125=VECTOR('',#399,10.);
#126=VECTOR('',#400,10.);
#127=VECTOR('',#401,10.);
#128=VECTOR('',#408,5.98);
#129=VECTOR('',#409,5.98);
#130=VECTOR('',#414,10.);
#131=VECTOR('',#419,10.);
#132=VECTOR('',#420,10.);
#133=VECTOR('',#421,10.);
#134=VECTOR('',#426,4.);
#135=B_SPLINE_CURVE_WITH_KNOTS('',3,(#443,#444,#445,#446),.UNSPECIFIED.,
 .F.,.F.,(4,4),(0.227060262946775,0.278336694927374),.UNSPECIFIED.);
#136=B_SPLINE_CURVE_WITH_KNOTS('',3,(#448,#449,#450,#451,#452,#453,#454,
#455,#456,#457),.UNSPECIFIED.,.F.,.F.,(4,2,2,2,4),(0.908241051787101,0.965010141194294,
1.02177923060149,1.07854027266768,1.13530131473388),.UNSPECIFIED.);
#137=B_SPLINE_CURVE_WITH_KNOTS('',3,(#462,#463,#464,#465,#466,#467,#468,
#469,#470,#471),.UNSPECIFIED.,.F.,.F.,(4,2,2,2,4),(0.681180788840326,0.737941830906521,
0.794702872972716,0.851471962379909,0.908241051787101),.UNSPECIFIED.);
#138=B_SPLINE_CURVE_WITH_KNOTS('',3,(#473,#474,#475,#476),.UNSPECIFIED.,
 .F.,.F.,(4,4),(0.629904356859731,0.681180788840326),.UNSPECIFIED.);
#139=B_SPLINE_CURVE_WITH_KNOTS('',3,(#477,#478,#479,#480,#481,#482,#483,
#484,#485,#486,#487,#488,#489,#490,#491,#492,#493,#494),.UNSPECIFIED.,.F.,
 .F.,(4,2,2,2,2,2,2,2,4),(0.278336694927374,0.28382130501297,0.340582347079166,
0.397351436486358,0.454120525893551,0.510889615300743,0.567658704707936,
0.624419746774131,0.629904356859731),.UNSPECIFIED.);
#140=VERTEX_POINT('',#441);
#141=VERTEX_POINT('',#442);
#142=VERTEX_POINT('',#447);
#143=VERTEX_POINT('',#458);
#144=VERTEX_POINT('',#461);
#145=VERTEX_POINT('',#472);
#146=VERTEX_POINT('',#496);
#147=VERTEX_POINT('',#497);
#148=VERTEX_POINT('',#499);
#149=VERTEX_POINT('',#501);
#150=VERTEX_POINT('',#505);
#151=VERTEX_POINT('',#507);
#152=VERTEX_POINT('',#511);
#153=VERTEX_POINT('',#513);
#154=VERTEX_POINT('',#517);
#155=VERTEX_POINT('',#519);
#156=VERTEX_POINT('',#523);
#157=VERTEX_POINT('',#525);
#158=VERTEX_POINT('',#532);
#159=VERTEX_POINT('',#533);
#160=VERTEX_POINT('',#535);
#161=VERTEX_POINT('',#537);
#162=VERTEX_POINT('',#541);
#163=VERTEX_POINT('',#545);
#164=VERTEX_POINT('',#548);
#165=VERTEX_POINT('',#550);
#166=VERTEX_POINT('',#554);
#167=VERTEX_POINT('',#555);
#168=VERTEX_POINT('',#560);
#169=VERTEX_POINT('',#562);
#170=EDGE_CURVE('',#140,#141,#135,.T.);
#171=EDGE_CURVE('',#142,#140,#136,.T.);
#172=EDGE_CURVE('',#142,#143,#75,.T.);
#173=EDGE_CURVE('',#143,#143,#74,.T.);
#174=EDGE_CURVE('',#144,#142,#137,.T.);
#175=EDGE_CURVE('',#145,#144,#138,.T.);
#176=EDGE_CURVE('',#141,#145,#139,.T.);
#177=EDGE_CURVE('',#146,#147,#76,.T.);
#178=EDGE_CURVE('',#146,#148,#77,.T.);
#179=EDGE_CURVE('',#149,#148,#78,.T.);
#180=EDGE_CURVE('',#147,#149,#79,.T.);
#181=EDGE_CURVE('',#150,#146,#80,.T.);
#182=EDGE_CURVE('',#150,#151,#81,.T.);
#183=EDGE_CURVE('',#148,#151,#82,.T.);
#184=EDGE_CURVE('',#152,#150,#83,.T.);
#185=EDGE_CURVE('',#152,#153,#84,.T.);
#186=EDGE_CURVE('',#151,#153,#85,.T.);
#187=EDGE_CURVE('',#154,#152,#86,.T.);
#188=EDGE_CURVE('',#154,#155,#87,.T.);
#189=EDGE_CURVE('',#153,#155,#88,.T.);
#190=EDGE_CURVE('',#156,#154,#89,.T.);
#191=EDGE_CURVE('',#156,#157,#90,.T.);
#192=EDGE_CURVE('',#155,#157,#91,.T.);
#193=EDGE_CURVE('',#147,#156,#92,.T.);
#194=EDGE_CURVE('',#157,#149,#93,.T.);
#195=EDGE_CURVE('',#158,#159,#94,.T.);
#196=EDGE_CURVE('',#160,#158,#95,.T.);
#197=EDGE_CURVE('',#161,#160,#96,.T.);
#198=EDGE_CURVE('',#159,#161,#97,.T.);
#199=EDGE_CURVE('',#162,#162,#15,.T.);
#200=EDGE_CURVE('',#162,#141,#98,.T.);
#201=EDGE_CURVE('',#145,#163,#99,.T.);
#202=EDGE_CURVE('',#161,#163,#16,.T.);
#203=EDGE_CURVE('',#160,#164,#17,.T.);
#204=EDGE_CURVE('',#164,#165,#100,.T.);
#205=EDGE_CURVE('',#163,#165,#18,.T.);
#206=EDGE_CURVE('',#166,#167,#101,.T.);
#207=EDGE_CURVE('',#166,#165,#102,.T.);
#208=EDGE_CURVE('',#167,#164,#103,.T.);
#209=EDGE_CURVE('',#168,#168,#19,.T.);
#210=EDGE_CURVE('',#168,#169,#104,.T.);
#211=EDGE_CURVE('',#169,#169,#20,.T.);
#212=EDGE_CURVE('',#166,#159,#21,.T.);
#213=EDGE_CURVE('',#158,#167,#22,.T.);
#214=ORIENTED_EDGE('',*,*,#170,.F.);
#215=ORIENTED_EDGE('',*,*,#171,.F.);
#216=ORIENTED_EDGE('',*,*,#172,.T.);
#217=ORIENTED_EDGE('',*,*,#173,.F.);
#218=ORIENTED_EDGE('',*,*,#172,.F.);
#219=ORIENTED_EDGE('',*,*,#174,.F.);
#220=ORIENTED_EDGE('',*,*,#175,.F.);
#221=ORIENTED_EDGE('',*,*,#176,.F.);
#222=ORIENTED_EDGE('',*,*,#177,.F.);
#223=ORIENTED_EDGE('',*,*,#178,.T.);
#224=ORIENTED_EDGE('',*,*,#179,.F.);
#225=ORIENTED_EDGE('',*,*,#180,.F.);
#226=ORIENTED_EDGE('',*,*,#181,.F.);
#227=ORIENTED_EDGE('',*,*,#182,.T.);
#228=ORIENTED_EDGE('',*,*,#183,.F.);
#229=ORIENTED_EDGE('',*,*,#178,.F.);
#230=ORIENTED_EDGE('',*,*,#184,.F.);
#231=ORIENTED_EDGE('',*,*,#185,.T.);
#232=ORIENTED_EDGE('',*,*,#186,.F.);
#233=ORIENTED_EDGE('',*,*,#182,.F.);
#234=ORIENTED_EDGE('',*,*,#173,.T.);
#235=ORIENTED_EDGE('',*,*,#187,.F.);
#236=ORIENTED_EDGE('',*,*,#188,.T.);
#237=ORIENTED_EDGE('',*,*,#189,.F.);
#238=ORIENTED_EDGE('',*,*,#185,.F.);
#239=ORIENTED_EDGE('',*,*,#190,.F.);
#240=ORIENTED_EDGE('',*,*,#191,.T.);
#241=ORIENTED_EDGE('',*,*,#192,.F.);
#242=ORIENTED_EDGE('',*,*,#188,.F.);
#243=ORIENTED_EDGE('',*,*,#193,.F.);
#244=ORIENTED_EDGE('',*,*,#180,.T.);
#245=ORIENTED_EDGE('',*,*,#194,.F.);
#246=ORIENTED_EDGE('',*,*,#191,.F.);
#247=ORIENTED_EDGE('',*,*,#195,.F.);
#248=ORIENTED_EDGE('',*,*,#196,.F.);
#249=ORIENTED_EDGE('',*,*,#197,.F.);
#250=ORIENTED_EDGE('',*,*,#198,.F.);
#251=ORIENTED_EDGE('',*,*,#199,.T.);
#252=ORIENTED_EDGE('',*,*,#177,.T.);
#253=ORIENTED_EDGE('',*,*,#193,.T.);
#254=ORIENTED_EDGE('',*,*,#190,.T.);
#255=ORIENTED_EDGE('',*,*,#187,.T.);
#256=ORIENTED_EDGE('',*,*,#184,.T.);
#257=ORIENTED_EDGE('',*,*,#181,.T.);
#258=ORIENTED_EDGE('',*,*,#199,.F.);
#259=ORIENTED_EDGE('',*,*,#200,.T.);
#260=ORIENTED_EDGE('',*,*,#176,.T.);
#261=ORIENTED_EDGE('',*,*,#201,.T.);
#262=ORIENTED_EDGE('',*,*,#202,.F.);
#263=ORIENTED_EDGE('',*,*,#197,.T.);
#264=ORIENTED_EDGE('',*,*,#203,.T.);
#265=ORIENTED_EDGE('',*,*,#204,.T.);
#266=ORIENTED_EDGE('',*,*,#205,.F.);
#267=ORIENTED_EDGE('',*,*,#201,.F.);
#268=ORIENTED_EDGE('',*,*,#175,.T.);
#269=ORIENTED_EDGE('',*,*,#174,.T.);
#270=ORIENTED_EDGE('',*,*,#171,.T.);
#271=ORIENTED_EDGE('',*,*,#170,.T.);
#272=ORIENTED_EDGE('',*,*,#200,.F.);
#273=ORIENTED_EDGE('',*,*,#206,.F.);
#274=ORIENTED_EDGE('',*,*,#207,.T.);
#275=ORIENTED_EDGE('',*,*,#204,.F.);
#276=ORIENTED_EDGE('',*,*,#208,.F.);
#277=ORIENTED_EDGE('',*,*,#209,.F.);
#278=ORIENTED_EDGE('',*,*,#210,.T.);
#279=ORIENTED_EDGE('',*,*,#211,.F.);
#280=ORIENTED_EDGE('',*,*,#210,.F.);
#281=ORIENTED_EDGE('',*,*,#195,.T.);
#282=ORIENTED_EDGE('',*,*,#212,.F.);
#283=ORIENTED_EDGE('',*,*,#206,.T.);
#284=ORIENTED_EDGE('',*,*,#213,.F.);
#285=ORIENTED_EDGE('',*,*,#212,.T.);
#286=ORIENTED_EDGE('',*,*,#198,.T.);
#287=ORIENTED_EDGE('',*,*,#202,.T.);
#288=ORIENTED_EDGE('',*,*,#205,.T.);
#289=ORIENTED_EDGE('',*,*,#207,.F.);
#290=ORIENTED_EDGE('',*,*,#179,.T.);
#291=ORIENTED_EDGE('',*,*,#183,.T.);
#292=ORIENTED_EDGE('',*,*,#186,.T.);
#293=ORIENTED_EDGE('',*,*,#189,.T.);
#294=ORIENTED_EDGE('',*,*,#192,.T.);
#295=ORIENTED_EDGE('',*,*,#194,.T.);
#296=ORIENTED_EDGE('',*,*,#211,.T.);
#297=ORIENTED_EDGE('',*,*,#213,.T.);
#298=ORIENTED_EDGE('',*,*,#208,.T.);
#299=ORIENTED_EDGE('',*,*,#203,.F.);
#300=ORIENTED_EDGE('',*,*,#196,.T.);
#301=ORIENTED_EDGE('',*,*,#209,.T.);
#302=CYLINDRICAL_SURFACE('',#335,1.5);
#303=CYLINDRICAL_SURFACE('',#346,5.98);
#304=CYLINDRICAL_SURFACE('',#351,4.);
#305=CYLINDRICAL_SURFACE('',#354,6.);
#306=ADVANCED_FACE('',(#39),#302,.F.);
#307=ADVANCED_FACE('',(#40),#28,.F.);
#308=ADVANCED_FACE('',(#41),#29,.F.);
#309=ADVANCED_FACE('',(#42,#23),#30,.F.);
#310=ADVANCED_FACE('',(#43),#31,.F.);
#311=ADVANCED_FACE('',(#44),#32,.F.);
#312=ADVANCED_FACE('',(#45),#33,.F.);
#313=ADVANCED_FACE('',(#46),#34,.F.);
#314=ADVANCED_FACE('',(#47,#24),#35,.T.);
#315=ADVANCED_FACE('',(#48),#303,.T.);
#316=ADVANCED_FACE('',(#49),#36,.F.);
#317=ADVANCED_FACE('',(#50),#304,.F.);
#318=ADVANCED_FACE('',(#51),#305,.T.);
#319=ADVANCED_FACE('',(#52,#25,#26),#37,.T.);
#320=ADVANCED_FACE('',(#53,#27),#38,.T.);
#321=CLOSED_SHELL('',(#306,#307,#308,#309,#310,#311,#312,#313,#314,#315,
#316,#317,#318,#319,#320));
#322=DERIVED_UNIT_ELEMENT(#324,1.);
#323=DERIVED_UNIT_ELEMENT(#575,-3.);
#324=(
MASS_UNIT()
NAMED_UNIT(*)
SI_UNIT(.KILO.,.GRAM.)
);
#325=DERIVED_UNIT((#322,#323));
#326=MEASURE_REPRESENTATION_ITEM('density measure',
POSITIVE_RATIO_MEASURE(7850.),#325);
#327=PROPERTY_DEFINITION_REPRESENTATION(#332,#329);
#328=PROPERTY_DEFINITION_REPRESENTATION(#333,#330);
#329=REPRESENTATION('material name',(#331),#572);
#330=REPRESENTATION('density',(#326),#572);
#331=DESCRIPTIVE_REPRESENTATION_ITEM('Stahl','Stahl');
#332=PROPERTY_DEFINITION('material property','material name',#582);
#333=PROPERTY_DEFINITION('material property','density of part',#582);
#334=AXIS2_PLACEMENT_3D('',#439,#359,#360);
#335=AXIS2_PLACEMENT_3D('',#440,#361,#362);
#336=AXIS2_PLACEMENT_3D('',#460,#364,#365);
#337=AXIS2_PLACEMENT_3D('',#495,#366,#367);
#338=AXIS2_PLACEMENT_3D('',#504,#372,#373);
#339=AXIS2_PLACEMENT_3D('',#510,#377,#378);
#340=AXIS2_PLACEMENT_3D('',#516,#382,#383);
#341=AXIS2_PLACEMENT_3D('',#522,#387,#388);
#342=AXIS2_PLACEMENT_3D('',#528,#392,#393);
#343=AXIS2_PLACEMENT_3D('',#531,#396,#397);
#344=AXIS2_PLACEMENT_3D('',#540,#402,#403);
#345=AXIS2_PLACEMENT_3D('',#542,#404,#405);
#346=AXIS2_PLACEMENT_3D('',#543,#406,#407);
#347=AXIS2_PLACEMENT_3D('',#547,#410,#411);
#348=AXIS2_PLACEMENT_3D('',#549,#412,#413);
#349=AXIS2_PLACEMENT_3D('',#552,#415,#416);
#350=AXIS2_PLACEMENT_3D('',#553,#417,#418);
#351=AXIS2_PLACEMENT_3D('',#559,#422,#423);
#352=AXIS2_PLACEMENT_3D('',#561,#424,#425);
#353=AXIS2_PLACEMENT_3D('',#564,#427,#428);
#354=AXIS2_PLACEMENT_3D('',#565,#429,#430);
#355=AXIS2_PLACEMENT_3D('',#566,#431,#432);
#356=AXIS2_PLACEMENT_3D('',#567,#433,#434);
#357=AXIS2_PLACEMENT_3D('',#568,#435,#436);
#358=AXIS2_PLACEMENT_3D('',#569,#437,#438);
#359=DIRECTION('axis',(0.,0.,1.));
#360=DIRECTION('refdir',(1.,0.,0.));
#361=DIRECTION('center_axis',(1.,-2.32070030231011E-17,0.));
#362=DIRECTION('ref_axis',(-2.32070030231011E-17,-1.,0.));
#363=DIRECTION('',(1.,-2.32070030231011E-17,0.));
#364=DIRECTION('center_axis',(-0.99923823589703,-0.039024965360532,0.));
#365=DIRECTION('ref_axis',(0.039024965360532,-0.99923823589703,0.));
#366=DIRECTION('center_axis',(0.465822506564487,0.884878179399842,0.));
#367=DIRECTION('ref_axis',(0.884878179399842,-0.465822506564487,0.));
#368=DIRECTION('',(0.884878179399842,-0.465822506564487,0.));
#369=DIRECTION('',(0.,0.,-1.));
#370=DIRECTION('',(-0.884878179399842,0.465822506564487,0.));
#371=DIRECTION('',(0.,0.,-1.));
#372=DIRECTION('center_axis',(-0.533415729332543,0.84585321403931,0.));
#373=DIRECTION('ref_axis',(0.84585321403931,0.533415729332543,0.));
#374=DIRECTION('',(0.84585321403931,0.533415729332543,0.));
#375=DIRECTION('',(0.,0.,-1.));
#376=DIRECTION('',(-0.84585321403931,-0.533415729332543,0.));
#377=DIRECTION('center_axis',(-0.99923823589703,-0.039024965360532,0.));
#378=DIRECTION('ref_axis',(-0.039024965360532,0.99923823589703,0.));
#379=DIRECTION('',(-0.039024965360532,0.99923823589703,0.));
#380=DIRECTION('',(0.,0.,-1.));
#381=DIRECTION('',(0.039024965360532,-0.99923823589703,0.));
#382=DIRECTION('center_axis',(-0.465822506564487,-0.884878179399842,0.));
#383=DIRECTION('ref_axis',(-0.884878179399842,0.465822506564487,0.));
#384=DIRECTION('',(-0.884878179399842,0.465822506564487,0.));
#385=DIRECTION('',(0.,0.,-1.));
#386=DIRECTION('',(0.884878179399842,-0.465822506564487,0.));
#387=DIRECTION('center_axis',(0.533415729332544,-0.84585321403931,0.));
#388=DIRECTION('ref_axis',(-0.84585321403931,-0.533415729332544,0.));
#389=DIRECTION('',(-0.84585321403931,-0.533415729332544,0.));
#390=DIRECTION('',(0.,0.,-1.));
#391=DIRECTION('',(0.84585321403931,0.533415729332544,0.));
#392=DIRECTION('center_axis',(0.99923823589703,0.039024965360532,0.));
#393=DIRECTION('ref_axis',(0.039024965360532,-0.99923823589703,0.));
#394=DIRECTION('',(0.039024965360532,-0.99923823589703,0.));
#395=DIRECTION('',(-0.039024965360532,0.99923823589703,0.));
#396=DIRECTION('center_axis',(-0.996194698091746,-0.0871557427476582,0.));
#397=DIRECTION('ref_axis',(0.,0.,-1.));
#398=DIRECTION('',(0.,0.,-1.));
#399=DIRECTION('',(-0.0871557427476582,0.996194698091746,0.));
#400=DIRECTION('',(0.,0.,1.));
#401=DIRECTION('',(0.0871557427476582,-0.996194698091746,0.));
#402=DIRECTION('center_axis',(0.,0.,1.));
#403=DIRECTION('ref_axis',(0.996194698091746,0.0871557427476582,0.));
#404=DIRECTION('center_axis',(0.,0.,1.));
#405=DIRECTION('ref_axis',(0.996194698091745,0.0871557427476582,0.));
#406=DIRECTION('center_axis',(0.,0.,1.));
#407=DIRECTION('ref_axis',(0.996194698091745,0.0871557427476582,0.));
#408=DIRECTION('',(0.,0.,-1.));
#409=DIRECTION('',(0.,0.,-1.));
#410=DIRECTION('center_axis',(0.,0.,-1.));
#411=DIRECTION('ref_axis',(0.996194698091745,0.0871557427476582,0.));
#412=DIRECTION('center_axis',(0.,0.,1.));
#413=DIRECTION('ref_axis',(0.996194698091745,0.0871557427476582,0.));
#414=DIRECTION('',(0.,0.,-1.));
#415=DIRECTION('center_axis',(0.,0.,-1.));
#416=DIRECTION('ref_axis',(0.996194698091745,0.0871557427476582,0.));
#417=DIRECTION('center_axis',(0.996194698091746,0.0871557427476582,0.));
#418=DIRECTION('ref_axis',(0.,0.,1.));
#419=DIRECTION('',(0.,0.,1.));
#420=DIRECTION('',(0.0871557427476582,-0.996194698091746,0.));
#421=DIRECTION('',(0.0871557427476582,-0.996194698091746,0.));
#422=DIRECTION('center_axis',(0.,0.,-1.));
#423=DIRECTION('ref_axis',(0.996194698091746,0.0871557427476582,0.));
#424=DIRECTION('center_axis',(0.,0.,-1.));
#425=DIRECTION('ref_axis',(0.996194698091746,0.0871557427476582,0.));
#426=DIRECTION('',(0.,0.,-1.));
#427=DIRECTION('center_axis',(0.,0.,1.));
#428=DIRECTION('ref_axis',(0.996194698091746,0.0871557427476582,0.));
#429=DIRECTION('center_axis',(0.,0.,1.));
#430=DIRECTION('ref_axis',(-0.0871557427476577,0.996194698091746,0.));
#431=DIRECTION('center_axis',(0.,0.,-1.));
#432=DIRECTION('ref_axis',(0.996194698091746,0.0871557427476582,0.));
#433=DIRECTION('center_axis',(0.,0.,1.));
#434=DIRECTION('ref_axis',(0.996194698091746,0.0871557427476582,0.));
#435=DIRECTION('center_axis',(0.,0.,-1.));
#436=DIRECTION('ref_axis',(-0.996194698091746,-0.0871557427476582,0.));
#437=DIRECTION('center_axis',(0.,0.,1.));
#438=DIRECTION('ref_axis',(0.996194698091746,0.0871557427476582,0.));
#439=CARTESIAN_POINT('',(0.,0.,0.));
#440=CARTESIAN_POINT('Origin',(43.7310178979626,-180.013002888187,12.8070843219757));
#441=CARTESIAN_POINT('',(42.2310178979625,-180.013002888187,14.3070843219757));
#442=CARTESIAN_POINT('',(42.2537736033724,-180.534194229801,14.2136260332106));
#443=CARTESIAN_POINT('Ctrl Pts',(42.2310178979625,-180.013002888187,14.3070843219757));
#444=CARTESIAN_POINT('Ctrl Pts',(42.2310178979625,-180.183924328122,14.3070843219757));
#445=CARTESIAN_POINT('Ctrl Pts',(42.2389548079226,-180.364814622745,14.2763893227221));
#446=CARTESIAN_POINT('Ctrl Pts',(42.253773603371,-180.534194229785,14.2136260332106));
#447=CARTESIAN_POINT('',(42.4222010931224,-178.513002888187,12.8070843219757));
#448=CARTESIAN_POINT('Ctrl Pts',(42.4222010931224,-178.513002888187,12.8070843219757));
#449=CARTESIAN_POINT('Ctrl Pts',(42.4222010931224,-178.513002888187,12.9963146199997));
#450=CARTESIAN_POINT('Ctrl Pts',(42.4119559857186,-178.550986676523,13.1975754653691));
#451=CARTESIAN_POINT('Ctrl Pts',(42.3754429025267,-178.704310882362,13.566887042576));
#452=CARTESIAN_POINT('Ctrl Pts',(42.3497548927757,-178.819610177156,13.7350119545042));
#453=CARTESIAN_POINT('Ctrl Pts',(42.3019147163132,-179.085056440067,14.0004582174152));
#454=CARTESIAN_POINT('Ctrl Pts',(42.2765841058051,-179.253189185512,14.1157721810967));
#455=CARTESIAN_POINT('Ctrl Pts',(42.2408963677834,-179.622528549792,14.2691070977951));
#456=CARTESIAN_POINT('Ctrl Pts',(42.2310178979625,-179.823799414633,14.3070843219757));
#457=CARTESIAN_POINT('Ctrl Pts',(42.2310178979625,-180.013002888187,14.3070843219757));
#458=CARTESIAN_POINT('',(44.1535484022496,-178.513002888187,12.8070843219757));
#459=CARTESIAN_POINT('',(43.7310178979626,-178.513002888187,12.8070843219757));
#460=CARTESIAN_POINT('Origin',(44.2121304760113,-180.013002888187,12.8070843219757));
#461=CARTESIAN_POINT('',(42.2310178979625,-180.013002888187,11.3070843219757));
#462=CARTESIAN_POINT('Ctrl Pts',(42.2310178979625,-180.013002888187,11.3070843219757));
#463=CARTESIAN_POINT('Ctrl Pts',(42.2310178979625,-179.823799414633,11.3070843219757));
#464=CARTESIAN_POINT('Ctrl Pts',(42.2408963677834,-179.622528549792,11.3450615461563));
#465=CARTESIAN_POINT('Ctrl Pts',(42.2765841058051,-179.253189185512,11.4983964628547));
#466=CARTESIAN_POINT('Ctrl Pts',(42.3019147163132,-179.085056440067,11.6137104265362));
#467=CARTESIAN_POINT('Ctrl Pts',(42.3497548927757,-178.819610177156,11.8791566894472));
#468=CARTESIAN_POINT('Ctrl Pts',(42.3754429025267,-178.704310882362,12.0472816013754));
#469=CARTESIAN_POINT('Ctrl Pts',(42.4119559857186,-178.550986676523,12.4165931785823));
#470=CARTESIAN_POINT('Ctrl Pts',(42.4222010931224,-178.513002888187,12.6178540239517));
#471=CARTESIAN_POINT('Ctrl Pts',(42.4222010931224,-178.513002888187,12.8070843219757));
#472=CARTESIAN_POINT('',(42.2537736033724,-180.534194229801,11.4005426107408));
#473=CARTESIAN_POINT('Ctrl Pts',(42.253773603371,-180.534194229784,11.4005426107407));
#474=CARTESIAN_POINT('Ctrl Pts',(42.2389548079226,-180.364814622745,11.3377793212293));
#475=CARTESIAN_POINT('Ctrl Pts',(42.2310178979625,-180.183924328122,11.3070843219757));
#476=CARTESIAN_POINT('Ctrl Pts',(42.2310178979625,-180.013002888187,11.3070843219757));
#477=CARTESIAN_POINT('Ctrl Pts',(42.253773603371,-180.534194229785,14.2136260332106));
#478=CARTESIAN_POINT('Ctrl Pts',(42.2553586456962,-180.552311346463,14.2069127702677));
#479=CARTESIAN_POINT('Ctrl Pts',(42.2570160495634,-180.570302958641,14.1998477330959));
#480=CARTESIAN_POINT('Ctrl Pts',(42.2765841058051,-180.772816590862,14.1157721810967));
#481=CARTESIAN_POINT('Ctrl Pts',(42.3019147163132,-180.940949336307,14.0004582174152));
#482=CARTESIAN_POINT('Ctrl Pts',(42.3497548927757,-181.206395599218,13.7350119545042));
#483=CARTESIAN_POINT('Ctrl Pts',(42.3754429025267,-181.321694894012,13.566887042576));
#484=CARTESIAN_POINT('Ctrl Pts',(42.4119559857186,-181.475019099851,13.1975754653691));
#485=CARTESIAN_POINT('Ctrl Pts',(42.4222010931224,-181.513002888187,12.9963146199997));
#486=CARTESIAN_POINT('Ctrl Pts',(42.4222010931224,-181.513002888187,12.6178540239517));
#487=CARTESIAN_POINT('Ctrl Pts',(42.4119559857186,-181.475019099851,12.4165931785823));
#488=CARTESIAN_POINT('Ctrl Pts',(42.3754429025267,-181.321694894012,12.0472816013754));
#489=CARTESIAN_POINT('Ctrl Pts',(42.3497548927757,-181.206395599218,11.8791566894472));
#490=CARTESIAN_POINT('Ctrl Pts',(42.3019147163132,-180.940949336307,11.6137104265362));
#491=CARTESIAN_POINT('Ctrl Pts',(42.2765841058051,-180.772816590862,11.4983964628547));
#492=CARTESIAN_POINT('Ctrl Pts',(42.2570160495634,-180.570302958641,11.4143209108555));
#493=CARTESIAN_POINT('Ctrl Pts',(42.2553586456961,-180.552311346463,11.4072558736837));
#494=CARTESIAN_POINT('Ctrl Pts',(42.253773603371,-180.534194229784,11.4005426107408));
#495=CARTESIAN_POINT('Origin',(48.0309567077891,-175.402517667758,21.));
#496=CARTESIAN_POINT('',(48.0309567077891,-175.402517667758,21.));
#497=CARTESIAN_POINT('',(52.1137846275399,-177.551822713047,21.));
#498=CARTESIAN_POINT('',(49.0516636877268,-175.93984392908,21.));
#499=CARTESIAN_POINT('',(48.0309567077891,-175.402517667758,9.00000000000001));
#500=CARTESIAN_POINT('',(48.0309567077891,-175.402517667758,21.));
#501=CARTESIAN_POINT('',(52.1137846275399,-177.551822713047,9.00000000000001));
#502=CARTESIAN_POINT('',(23.1527325821849,-162.305984166478,9.00000000000001));
#503=CARTESIAN_POINT('',(52.1137846275399,-177.551822713047,21.));
#504=CARTESIAN_POINT('Origin',(44.1281899782117,-177.863697842898,21.));
#505=CARTESIAN_POINT('',(44.1281899782117,-177.863697842898,21.));
#506=CARTESIAN_POINT('',(45.103881660606,-177.248402799113,21.));
#507=CARTESIAN_POINT('',(44.1281899782117,-177.863697842898,9.00000000000001));
#508=CARTESIAN_POINT('',(44.1281899782117,-177.863697842898,21.));
#509=CARTESIAN_POINT('',(66.040454785561,-164.045287603936,9.00000000000001));
#510=CARTESIAN_POINT('Origin',(44.3082511683852,-182.474183063327,21.));
#511=CARTESIAN_POINT('',(44.3082511683852,-182.474183063327,21.));
#512=CARTESIAN_POINT('',(44.2632358708418,-181.32156175822,21.));
#513=CARTESIAN_POINT('',(44.3082511683852,-182.474183063327,9.00000000000001));
#514=CARTESIAN_POINT('',(44.3082511683852,-182.474183063327,21.));
#515=CARTESIAN_POINT('',(42.1550926184807,-127.342337816666,9.00000000000001));
#516=CARTESIAN_POINT('Origin',(48.391079088136,-184.623488108616,21.));
#517=CARTESIAN_POINT('',(48.391079088136,-184.623488108616,21.));
#518=CARTESIAN_POINT('',(47.3703721081983,-184.086161847294,21.));
#519=CARTESIAN_POINT('',(48.391079088136,-184.623488108616,9.00000000000001));
#520=CARTESIAN_POINT('',(48.391079088136,-184.623488108616,21.));
#521=CARTESIAN_POINT('',(21.4714410026564,-170.452302084691,9.00000000000001));
#522=CARTESIAN_POINT('Origin',(52.2938458177134,-182.162307933475,21.));
#523=CARTESIAN_POINT('',(52.2938458177134,-182.162307933475,21.));
#524=CARTESIAN_POINT('',(51.3181541353191,-182.777602977261,21.));
#525=CARTESIAN_POINT('',(52.2938458177134,-182.162307933475,9.00000000000001));
#526=CARTESIAN_POINT('',(52.2938458177134,-182.162307933475,21.));
#527=CARTESIAN_POINT('',(72.2547272602741,-169.574487782083,9.00000000000001));
#528=CARTESIAN_POINT('Origin',(52.1137846275399,-177.551822713047,21.));
#529=CARTESIAN_POINT('',(52.1587999250833,-178.704444018154,21.));
#530=CARTESIAN_POINT('',(50.0506566727222,-124.7252200766,9.00000000000001));
#531=CARTESIAN_POINT('Origin',(43.2478182981777,-77.3885188909226,12.));
#532=CARTESIAN_POINT('',(43.1582340438921,-76.3645661789341,15.));
#533=CARTESIAN_POINT('',(43.1582340438921,-76.3645661789341,9.00000000000001));
#534=CARTESIAN_POINT('',(43.1582340438921,-76.3645661789341,12.));
#535=CARTESIAN_POINT('',(51.8083661305013,-175.236028354672,15.));
#536=CARTESIAN_POINT('',(43.2478182981777,-77.3885188909226,15.));
#537=CARTESIAN_POINT('',(51.8083661305013,-175.236028354672,9.00000000000001));
#538=CARTESIAN_POINT('',(51.8083661305013,-175.236028354672,12.));
#539=CARTESIAN_POINT('',(43.7271748832898,-82.8675897304272,9.00000000000001));
#540=CARTESIAN_POINT('Origin',(48.2110178979625,-180.013002888187,21.));
#541=CARTESIAN_POINT('',(42.2537736033739,-180.534194229818,21.));
#542=CARTESIAN_POINT('Origin',(48.2110178979625,-180.013002888187,21.));
#543=CARTESIAN_POINT('Origin',(48.2110178979625,-180.013002888187,12.));
#544=CARTESIAN_POINT('',(42.2537736033739,-180.534194229818,12.));
#545=CARTESIAN_POINT('',(42.2537736033739,-180.534194229818,9.00000000000001));
#546=CARTESIAN_POINT('',(42.2537736033739,-180.534194229818,12.));
#547=CARTESIAN_POINT('Origin',(48.2110178979625,-180.013002888187,9.00000000000001));
#548=CARTESIAN_POINT('',(43.8388085457674,-175.933274296653,15.));
#549=CARTESIAN_POINT('Origin',(48.2110178979625,-180.013002888187,15.));
#550=CARTESIAN_POINT('',(43.8388085457674,-175.933274296653,9.00000000000001));
#551=CARTESIAN_POINT('',(43.8388085457674,-175.933274296653,12.));
#552=CARTESIAN_POINT('Origin',(48.2110178979625,-180.013002888187,9.00000000000001));
#553=CARTESIAN_POINT('Origin',(35.2782607134437,-78.0857648329039,12.));
#554=CARTESIAN_POINT('',(35.1886764591581,-77.0618121209153,9.00000000000001));
#555=CARTESIAN_POINT('',(35.1886764591581,-77.0618121209153,15.));
#556=CARTESIAN_POINT('',(35.1886764591581,-77.0618121209153,12.));
#557=CARTESIAN_POINT('',(35.7576172985559,-83.5648356724085,9.00000000000001));
#558=CARTESIAN_POINT('',(35.7576172985559,-83.5648356724085,15.));
#559=CARTESIAN_POINT('Origin',(38.7836829206986,-72.2580710224087,12.));
#560=CARTESIAN_POINT('',(34.7989041283316,-72.6066939933993,15.));
#561=CARTESIAN_POINT('Origin',(38.7836829206986,-72.2580710224087,15.));
#562=CARTESIAN_POINT('',(34.7989041283316,-72.6066939933993,9.00000000000001));
#563=CARTESIAN_POINT('',(34.7989041283316,-72.6066939933993,12.));
#564=CARTESIAN_POINT('Origin',(38.7836829206986,-72.2580710224087,9.00000000000001));
#565=CARTESIAN_POINT('Origin',(38.7836829206986,-72.2580710224087,12.));
#566=CARTESIAN_POINT('Origin',(38.7836829206986,-72.2580710224087,9.00000000000001));
#567=CARTESIAN_POINT('Origin',(38.7836829206986,-72.2580710224087,15.));
#568=CARTESIAN_POINT('Origin',(38.7836829206986,-72.2580710224087,9.00000000000001));
#569=CARTESIAN_POINT('Origin',(38.7836829206986,-72.2580710224087,15.));
#570=UNCERTAINTY_MEASURE_WITH_UNIT(LENGTH_MEASURE(0.01),#574,
'DISTANCE_ACCURACY_VALUE',
'Maximum model space distance between geometric entities at asserted c
onnectivities');
#571=UNCERTAINTY_MEASURE_WITH_UNIT(LENGTH_MEASURE(0.01),#574,
'DISTANCE_ACCURACY_VALUE',
'Maximum model space distance between geometric entities at asserted c
onnectivities');
#572=(
GEOMETRIC_REPRESENTATION_CONTEXT(3)
GLOBAL_UNCERTAINTY_ASSIGNED_CONTEXT((#570))
GLOBAL_UNIT_ASSIGNED_CONTEXT((#574,#576,#577))
REPRESENTATION_CONTEXT('','3D')
);
#573=(
GEOMETRIC_REPRESENTATION_CONTEXT(3)
GLOBAL_UNCERTAINTY_ASSIGNED_CONTEXT((#571))
GLOBAL_UNIT_ASSIGNED_CONTEXT((#574,#576,#577))
REPRESENTATION_CONTEXT('','3D')
);
#574=(
LENGTH_UNIT()
NAMED_UNIT(*)
SI_UNIT(.MILLI.,.METRE.)
);
#575=(
LENGTH_UNIT()
NAMED_UNIT(*)
SI_UNIT($,.METRE.)
);
#576=(
NAMED_UNIT(*)
PLANE_ANGLE_UNIT()
SI_UNIT($,.RADIAN.)
);
#577=(
NAMED_UNIT(*)
SI_UNIT($,.STERADIAN.)
SOLID_ANGLE_UNIT()
);
#578=SHAPE_DEFINITION_REPRESENTATION(#579,#580);
#579=PRODUCT_DEFINITION_SHAPE('',$,#582);
#580=SHAPE_REPRESENTATION('',(#334),#572);
#581=PRODUCT_DEFINITION_CONTEXT('part definition',#586,'design');
#582=PRODUCT_DEFINITION('end_gelenk2','end_gelenk2',#583,#581);
#583=PRODUCT_DEFINITION_FORMATION('',$,#588);
#584=PRODUCT_RELATED_PRODUCT_CATEGORY('end_gelenk2','end_gelenk2',(#588));
#585=APPLICATION_PROTOCOL_DEFINITION('international standard',
'automotive_design',2009,#586);
#586=APPLICATION_CONTEXT(
'Core Data for Automotive Mechanical Design Process');
#587=PRODUCT_CONTEXT('part definition',#586,'mechanical');
#588=PRODUCT('end_gelenk2','end_gelenk2',$,(#587));
#589=PRESENTATION_STYLE_ASSIGNMENT((#590));
#590=SURFACE_STYLE_USAGE(.BOTH.,#591);
#591=SURFACE_SIDE_STYLE('',(#592));
#592=SURFACE_STYLE_FILL_AREA(#593);
#593=FILL_AREA_STYLE('Stahl - satiniert',(#594));
#594=FILL_AREA_STYLE_COLOUR('Stahl - satiniert',#595);
#595=COLOUR_RGB('Stahl - satiniert',0.627450980392157,0.627450980392157,
0.627450980392157);
ENDSEC;
END-ISO-10303-21;
