ISO-10303-21;
HEADER;
/* Generated by software containing ST-Developer
 * from STEP Tools, Inc. (www.steptools.com) 
 */

FILE_DESCRIPTION(
/* description */ (''),
/* implementation_level */ '2;1');

FILE_NAME(
/* name */ 'end_gelenk1.step',
/* time_stamp */ '2026-05-24T04:14:48+02:00',
/* author */ (''),
/* organization */ (''),
/* preprocessor_version */ 'ST-DEVELOPER v20.1',
/* originating_system */ 'Autodesk Translation Framework v15.8.0.0',
/* authorisation */ '');

FILE_SCHEMA (('AUTOMOTIVE_DESIGN { 1 0 10303 214 3 1 1 }'));
ENDSEC;

DATA;
#10=MECHANICAL_DESIGN_GEOMETRIC_PRESENTATION_REPRESENTATION('',(#13),#265);
#11=SHAPE_REPRESENTATION_RELATIONSHIP('SRR','None',#272,#12);
#12=ADVANCED_BREP_SHAPE_REPRESENTATION('',(#14),#264);
#13=STYLED_ITEM('',(#281),#14);
#14=MANIFOLD_SOLID_BREP('end_gelenk1',#149);
#15=FACE_BOUND('',#33,.T.);
#16=FACE_BOUND('',#34,.T.);
#17=FACE_BOUND('',#40,.T.);
#18=FACE_BOUND('',#41,.T.);
#19=PLANE('',#166);
#20=PLANE('',#170);
#21=PLANE('',#177);
#22=PLANE('',#178);
#23=FACE_OUTER_BOUND('',#31,.T.);
#24=FACE_OUTER_BOUND('',#32,.T.);
#25=FACE_OUTER_BOUND('',#35,.T.);
#26=FACE_OUTER_BOUND('',#36,.T.);
#27=FACE_OUTER_BOUND('',#37,.T.);
#28=FACE_OUTER_BOUND('',#38,.T.);
#29=FACE_OUTER_BOUND('',#39,.T.);
#30=FACE_OUTER_BOUND('',#42,.T.);
#31=EDGE_LOOP('',(#101,#102,#103,#104));
#32=EDGE_LOOP('',(#105,#106,#107,#108));
#33=EDGE_LOOP('',(#109));
#34=EDGE_LOOP('',(#110));
#35=EDGE_LOOP('',(#111,#112,#113,#114));
#36=EDGE_LOOP('',(#115,#116,#117,#118));
#37=EDGE_LOOP('',(#119,#120,#121,#122));
#38=EDGE_LOOP('',(#123,#124,#125,#126));
#39=EDGE_LOOP('',(#127,#128,#129,#130));
#40=EDGE_LOOP('',(#131));
#41=EDGE_LOOP('',(#132));
#42=EDGE_LOOP('',(#133,#134,#135,#136));
#43=CIRCLE('',#164,6.);
#44=CIRCLE('',#165,6.);
#45=CIRCLE('',#167,8.);
#46=CIRCLE('',#168,4.);
#47=CIRCLE('',#169,6.);
#48=CIRCLE('',#172,4.);
#49=CIRCLE('',#174,6.);
#50=CIRCLE('',#176,8.);
#51=LINE('',#227,#61);
#52=LINE('',#231,#62);
#53=LINE('',#235,#63);
#54=LINE('',#238,#64);
#55=LINE('',#245,#65);
#56=LINE('',#246,#66);
#57=LINE('',#250,#67);
#58=LINE('',#254,#68);
#59=LINE('',#257,#69);
#60=LINE('',#260,#70);
#61=VECTOR('',#183,10.);
#62=VECTOR('',#186,10.);
#63=VECTOR('',#191,10.);
#64=VECTOR('',#194,10.);
#65=VECTOR('',#201,10.);
#66=VECTOR('',#202,10.);
#67=VECTOR('',#207,4.);
#68=VECTOR('',#212,6.);
#69=VECTOR('',#215,10.);
#70=VECTOR('',#220,10.);
#71=VERTEX_POINT('',#225);
#72=VERTEX_POINT('',#226);
#73=VERTEX_POINT('',#228);
#74=VERTEX_POINT('',#230);
#75=VERTEX_POINT('',#234);
#76=VERTEX_POINT('',#236);
#77=VERTEX_POINT('',#239);
#78=VERTEX_POINT('',#241);
#79=VERTEX_POINT('',#244);
#80=VERTEX_POINT('',#248);
#81=VERTEX_POINT('',#252);
#82=VERTEX_POINT('',#256);
#83=EDGE_CURVE('',#71,#72,#51,.T.);
#84=EDGE_CURVE('',#73,#71,#43,.T.);
#85=EDGE_CURVE('',#74,#73,#52,.T.);
#86=EDGE_CURVE('',#72,#74,#44,.T.);
#87=EDGE_CURVE('',#74,#75,#53,.T.);
#88=EDGE_CURVE('',#75,#76,#45,.T.);
#89=EDGE_CURVE('',#72,#76,#54,.T.);
#90=EDGE_CURVE('',#77,#77,#46,.T.);
#91=EDGE_CURVE('',#78,#78,#47,.T.);
#92=EDGE_CURVE('',#79,#73,#55,.T.);
#93=EDGE_CURVE('',#75,#79,#56,.T.);
#94=EDGE_CURVE('',#80,#80,#48,.T.);
#95=EDGE_CURVE('',#80,#77,#57,.T.);
#96=EDGE_CURVE('',#81,#81,#49,.T.);
#97=EDGE_CURVE('',#81,#78,#58,.T.);
#98=EDGE_CURVE('',#82,#76,#59,.T.);
#99=EDGE_CURVE('',#82,#79,#50,.T.);
#100=EDGE_CURVE('',#71,#82,#60,.T.);
#101=ORIENTED_EDGE('',*,*,#83,.F.);
#102=ORIENTED_EDGE('',*,*,#84,.F.);
#103=ORIENTED_EDGE('',*,*,#85,.F.);
#104=ORIENTED_EDGE('',*,*,#86,.F.);
#105=ORIENTED_EDGE('',*,*,#86,.T.);
#106=ORIENTED_EDGE('',*,*,#87,.T.);
#107=ORIENTED_EDGE('',*,*,#88,.T.);
#108=ORIENTED_EDGE('',*,*,#89,.F.);
#109=ORIENTED_EDGE('',*,*,#90,.T.);
#110=ORIENTED_EDGE('',*,*,#91,.T.);
#111=ORIENTED_EDGE('',*,*,#85,.T.);
#112=ORIENTED_EDGE('',*,*,#92,.F.);
#113=ORIENTED_EDGE('',*,*,#93,.F.);
#114=ORIENTED_EDGE('',*,*,#87,.F.);
#115=ORIENTED_EDGE('',*,*,#94,.F.);
#116=ORIENTED_EDGE('',*,*,#95,.T.);
#117=ORIENTED_EDGE('',*,*,#90,.F.);
#118=ORIENTED_EDGE('',*,*,#95,.F.);
#119=ORIENTED_EDGE('',*,*,#96,.F.);
#120=ORIENTED_EDGE('',*,*,#97,.T.);
#121=ORIENTED_EDGE('',*,*,#91,.F.);
#122=ORIENTED_EDGE('',*,*,#97,.F.);
#123=ORIENTED_EDGE('',*,*,#98,.T.);
#124=ORIENTED_EDGE('',*,*,#88,.F.);
#125=ORIENTED_EDGE('',*,*,#93,.T.);
#126=ORIENTED_EDGE('',*,*,#99,.F.);
#127=ORIENTED_EDGE('',*,*,#100,.T.);
#128=ORIENTED_EDGE('',*,*,#99,.T.);
#129=ORIENTED_EDGE('',*,*,#92,.T.);
#130=ORIENTED_EDGE('',*,*,#84,.T.);
#131=ORIENTED_EDGE('',*,*,#94,.T.);
#132=ORIENTED_EDGE('',*,*,#96,.T.);
#133=ORIENTED_EDGE('',*,*,#83,.T.);
#134=ORIENTED_EDGE('',*,*,#89,.T.);
#135=ORIENTED_EDGE('',*,*,#98,.F.);
#136=ORIENTED_EDGE('',*,*,#100,.F.);
#137=CYLINDRICAL_SURFACE('',#163,6.);
#138=CYLINDRICAL_SURFACE('',#171,4.);
#139=CYLINDRICAL_SURFACE('',#173,6.);
#140=CYLINDRICAL_SURFACE('',#175,8.);
#141=ADVANCED_FACE('',(#23),#137,.T.);
#142=ADVANCED_FACE('',(#24,#15,#16),#19,.T.);
#143=ADVANCED_FACE('',(#25),#20,.F.);
#144=ADVANCED_FACE('',(#26),#138,.F.);
#145=ADVANCED_FACE('',(#27),#139,.F.);
#146=ADVANCED_FACE('',(#28),#140,.T.);
#147=ADVANCED_FACE('',(#29,#17,#18),#21,.T.);
#148=ADVANCED_FACE('',(#30),#22,.F.);
#149=CLOSED_SHELL('',(#141,#142,#143,#144,#145,#146,#147,#148));
#150=DERIVED_UNIT_ELEMENT(#152,1.);
#151=DERIVED_UNIT_ELEMENT(#267,-3.);
#152=(
MASS_UNIT()
NAMED_UNIT(*)
SI_UNIT(.KILO.,.GRAM.)
);
#153=DERIVED_UNIT((#150,#151));
#154=MEASURE_REPRESENTATION_ITEM('density measure',
POSITIVE_RATIO_MEASURE(7850.),#153);
#155=PROPERTY_DEFINITION_REPRESENTATION(#160,#157);
#156=PROPERTY_DEFINITION_REPRESENTATION(#161,#158);
#157=REPRESENTATION('material name',(#159),#264);
#158=REPRESENTATION('density',(#154),#264);
#159=DESCRIPTIVE_REPRESENTATION_ITEM('Stahl','Stahl');
#160=PROPERTY_DEFINITION('material property','material name',#274);
#161=PROPERTY_DEFINITION('material property','density of part',#274);
#162=AXIS2_PLACEMENT_3D('',#223,#179,#180);
#163=AXIS2_PLACEMENT_3D('',#224,#181,#182);
#164=AXIS2_PLACEMENT_3D('',#229,#184,#185);
#165=AXIS2_PLACEMENT_3D('',#232,#187,#188);
#166=AXIS2_PLACEMENT_3D('',#233,#189,#190);
#167=AXIS2_PLACEMENT_3D('',#237,#192,#193);
#168=AXIS2_PLACEMENT_3D('',#240,#195,#196);
#169=AXIS2_PLACEMENT_3D('',#242,#197,#198);
#170=AXIS2_PLACEMENT_3D('',#243,#199,#200);
#171=AXIS2_PLACEMENT_3D('',#247,#203,#204);
#172=AXIS2_PLACEMENT_3D('',#249,#205,#206);
#173=AXIS2_PLACEMENT_3D('',#251,#208,#209);
#174=AXIS2_PLACEMENT_3D('',#253,#210,#211);
#175=AXIS2_PLACEMENT_3D('',#255,#213,#214);
#176=AXIS2_PLACEMENT_3D('',#258,#216,#217);
#177=AXIS2_PLACEMENT_3D('',#259,#218,#219);
#178=AXIS2_PLACEMENT_3D('',#261,#221,#222);
#179=DIRECTION('axis',(0.,0.,1.));
#180=DIRECTION('refdir',(1.,0.,0.));
#181=DIRECTION('center_axis',(0.,0.,1.));
#182=DIRECTION('ref_axis',(0.866025403784439,0.5,0.));
#183=DIRECTION('',(0.,0.,-1.));
#184=DIRECTION('center_axis',(0.,0.,1.));
#185=DIRECTION('ref_axis',(0.5,-0.866025403784439,0.));
#186=DIRECTION('',(0.,0.,1.));
#187=DIRECTION('center_axis',(0.,0.,-1.));
#188=DIRECTION('ref_axis',(0.5,-0.866025403784439,0.));
#189=DIRECTION('center_axis',(0.,0.,-1.));
#190=DIRECTION('ref_axis',(-0.5,0.866025403784439,0.));
#191=DIRECTION('',(-0.866025403784439,-0.5,0.));
#192=DIRECTION('center_axis',(0.,0.,-1.));
#193=DIRECTION('ref_axis',(0.5,-0.866025403784439,0.));
#194=DIRECTION('',(-0.866025403784439,-0.5,0.));
#195=DIRECTION('center_axis',(0.,0.,1.));
#196=DIRECTION('ref_axis',(0.5,-0.866025403784439,0.));
#197=DIRECTION('center_axis',(0.,0.,1.));
#198=DIRECTION('ref_axis',(0.5,-0.866025403784439,0.));
#199=DIRECTION('center_axis',(-0.5,0.866025403784439,0.));
#200=DIRECTION('ref_axis',(0.,0.,-1.));
#201=DIRECTION('',(0.866025403784439,0.5,0.));
#202=DIRECTION('',(0.,0.,1.));
#203=DIRECTION('center_axis',(0.,0.,-1.));
#204=DIRECTION('ref_axis',(0.5,-0.866025403784439,0.));
#205=DIRECTION('center_axis',(0.,0.,-1.));
#206=DIRECTION('ref_axis',(0.5,-0.866025403784439,0.));
#207=DIRECTION('',(0.,0.,-1.));
#208=DIRECTION('center_axis',(0.,0.,-1.));
#209=DIRECTION('ref_axis',(0.5,-0.866025403784439,0.));
#210=DIRECTION('center_axis',(0.,0.,-1.));
#211=DIRECTION('ref_axis',(0.5,-0.866025403784439,0.));
#212=DIRECTION('',(0.,0.,-1.));
#213=DIRECTION('center_axis',(0.,0.,1.));
#214=DIRECTION('ref_axis',(-0.866025403784439,-0.5,0.));
#215=DIRECTION('',(0.,0.,-1.));
#216=DIRECTION('center_axis',(0.,0.,1.));
#217=DIRECTION('ref_axis',(0.5,-0.866025403784439,0.));
#218=DIRECTION('center_axis',(0.,0.,1.));
#219=DIRECTION('ref_axis',(0.5,-0.866025403784439,0.));
#220=DIRECTION('',(-0.866025403784439,-0.5,0.));
#221=DIRECTION('center_axis',(0.5,-0.866025403784439,0.));
#222=DIRECTION('ref_axis',(0.,0.,1.));
#223=CARTESIAN_POINT('',(0.,0.,0.));
#224=CARTESIAN_POINT('Origin',(144.342392499175,-127.208457127724,18.));
#225=CARTESIAN_POINT('',(138.469409152967,-125.980423490086,21.));
#226=CARTESIAN_POINT('',(138.469409152967,-125.980423490086,15.));
#227=CARTESIAN_POINT('',(138.469409152967,-125.980423490086,18.));
#228=CARTESIAN_POINT('',(142.469409152967,-132.908626720362,21.));
#229=CARTESIAN_POINT('Origin',(144.342392499175,-127.208457127724,21.));
#230=CARTESIAN_POINT('',(142.469409152967,-132.908626720362,15.));
#231=CARTESIAN_POINT('',(142.469409152967,-132.908626720362,18.));
#232=CARTESIAN_POINT('Origin',(144.342392499175,-127.208457127724,15.));
#233=CARTESIAN_POINT('Origin',(50.6674225785549,-181.291726227724,15.));
#234=CARTESIAN_POINT('',(58.6674225785548,-181.291726227724,15.));
#235=CARTESIAN_POINT('',(118.629579578073,-146.672558742862,15.));
#236=CARTESIAN_POINT('',(54.6674225785549,-174.363522997449,15.));
#237=CARTESIAN_POINT('Origin',(50.6674225785549,-181.291726227724,15.));
#238=CARTESIAN_POINT('',(114.629579578073,-139.744355512587,15.));
#239=CARTESIAN_POINT('',(142.342392499175,-123.744355512587,15.));
#240=CARTESIAN_POINT('Origin',(144.342392499175,-127.208457127724,15.));
#241=CARTESIAN_POINT('',(47.6674225785549,-176.095573805018,15.));
#242=CARTESIAN_POINT('Origin',(50.6674225785549,-181.291726227724,15.));
#243=CARTESIAN_POINT('Origin',(132.485986038624,-138.672558742862,18.));
#244=CARTESIAN_POINT('',(58.6674225785548,-181.291726227724,21.));
#245=CARTESIAN_POINT('',(132.485986038624,-138.672558742862,21.));
#246=CARTESIAN_POINT('',(58.6674225785548,-181.291726227724,18.));
#247=CARTESIAN_POINT('Origin',(144.342392499175,-127.208457127724,18.));
#248=CARTESIAN_POINT('',(142.342392499175,-123.744355512587,21.));
#249=CARTESIAN_POINT('Origin',(144.342392499175,-127.208457127724,21.));
#250=CARTESIAN_POINT('',(142.342392499175,-123.744355512587,18.));
#251=CARTESIAN_POINT('Origin',(50.6674225785549,-181.291726227724,18.));
#252=CARTESIAN_POINT('',(47.6674225785549,-176.095573805018,21.));
#253=CARTESIAN_POINT('Origin',(50.6674225785549,-181.291726227724,21.));
#254=CARTESIAN_POINT('',(47.6674225785549,-176.095573805018,18.));
#255=CARTESIAN_POINT('Origin',(50.6674225785549,-181.291726227724,18.));
#256=CARTESIAN_POINT('',(54.6674225785549,-174.363522997449,21.));
#257=CARTESIAN_POINT('',(54.6674225785549,-174.363522997449,18.));
#258=CARTESIAN_POINT('Origin',(50.6674225785549,-181.291726227724,21.));
#259=CARTESIAN_POINT('Origin',(50.6674225785549,-181.291726227724,21.));
#260=CARTESIAN_POINT('',(114.629579578073,-139.744355512587,21.));
#261=CARTESIAN_POINT('Origin',(128.485986038624,-131.744355512587,18.));
#262=UNCERTAINTY_MEASURE_WITH_UNIT(LENGTH_MEASURE(0.01),#266,
'DISTANCE_ACCURACY_VALUE',
'Maximum model space distance between geometric entities at asserted c
onnectivities');
#263=UNCERTAINTY_MEASURE_WITH_UNIT(LENGTH_MEASURE(0.01),#266,
'DISTANCE_ACCURACY_VALUE',
'Maximum model space distance between geometric entities at asserted c
onnectivities');
#264=(
GEOMETRIC_REPRESENTATION_CONTEXT(3)
GLOBAL_UNCERTAINTY_ASSIGNED_CONTEXT((#262))
GLOBAL_UNIT_ASSIGNED_CONTEXT((#266,#268,#269))
REPRESENTATION_CONTEXT('','3D')
);
#265=(
GEOMETRIC_REPRESENTATION_CONTEXT(3)
GLOBAL_UNCERTAINTY_ASSIGNED_CONTEXT((#263))
GLOBAL_UNIT_ASSIGNED_CONTEXT((#266,#268,#269))
REPRESENTATION_CONTEXT('','3D')
);
#266=(
LENGTH_UNIT()
NAMED_UNIT(*)
SI_UNIT(.MILLI.,.METRE.)
);
#267=(
LENGTH_UNIT()
NAMED_UNIT(*)
SI_UNIT($,.METRE.)
);
#268=(
NAMED_UNIT(*)
PLANE_ANGLE_UNIT()
SI_UNIT($,.RADIAN.)
);
#269=(
NAMED_UNIT(*)
SI_UNIT($,.STERADIAN.)
SOLID_ANGLE_UNIT()
);
#270=SHAPE_DEFINITION_REPRESENTATION(#271,#272);
#271=PRODUCT_DEFINITION_SHAPE('',$,#274);
#272=SHAPE_REPRESENTATION('',(#162),#264);
#273=PRODUCT_DEFINITION_CONTEXT('part definition',#278,'design');
#274=PRODUCT_DEFINITION('end_gelenk1','end_gelenk1',#275,#273);
#275=PRODUCT_DEFINITION_FORMATION('',$,#280);
#276=PRODUCT_RELATED_PRODUCT_CATEGORY('end_gelenk1','end_gelenk1',(#280));
#277=APPLICATION_PROTOCOL_DEFINITION('international standard',
'automotive_design',2009,#278);
#278=APPLICATION_CONTEXT(
'Core Data for Automotive Mechanical Design Process');
#279=PRODUCT_CONTEXT('part definition',#278,'mechanical');
#280=PRODUCT('end_gelenk1','end_gelenk1',$,(#279));
#281=PRESENTATION_STYLE_ASSIGNMENT((#282));
#282=SURFACE_STYLE_USAGE(.BOTH.,#283);
#283=SURFACE_SIDE_STYLE('',(#284));
#284=SURFACE_STYLE_FILL_AREA(#285);
#285=FILL_AREA_STYLE('Stahl - satiniert',(#286));
#286=FILL_AREA_STYLE_COLOUR('Stahl - satiniert',#287);
#287=COLOUR_RGB('Stahl - satiniert',0.627450980392157,0.627450980392157,
0.627450980392157);
ENDSEC;
END-ISO-10303-21;
