ISO-10303-21;
HEADER;
/* Generated by software containing ST-Developer
 * from STEP Tools, Inc. (www.steptools.com) 
 */

FILE_DESCRIPTION(
/* description */ (''),
/* implementation_level */ '2;1');

FILE_NAME(
/* name */ 'kreuz_gelenk1.step',
/* time_stamp */ '2026-05-24T04:14:01+02:00',
/* author */ (''),
/* organization */ (''),
/* preprocessor_version */ 'ST-DEVELOPER v20.1',
/* originating_system */ 'Autodesk Translation Framework v15.8.0.0',
/* authorisation */ '');

FILE_SCHEMA (('AUTOMOTIVE_DESIGN { 1 0 10303 214 3 1 1 }'));
ENDSEC;

DATA;
#10=MECHANICAL_DESIGN_GEOMETRIC_PRESENTATION_REPRESENTATION('',(#13),#440);
#11=SHAPE_REPRESENTATION_RELATIONSHIP('SRR','None',#447,#12);
#12=ADVANCED_BREP_SHAPE_REPRESENTATION('',(#14),#439);
#13=STYLED_ITEM('',(#456),#14);
#14=MANIFOLD_SOLID_BREP('kreuz_gelenk1',#252);
#15=FACE_BOUND('',#48,.T.);
#16=FACE_BOUND('',#49,.T.);
#17=FACE_BOUND('',#50,.T.);
#18=FACE_BOUND('',#56,.T.);
#19=FACE_BOUND('',#57,.T.);
#20=FACE_BOUND('',#58,.T.);
#21=PLANE('',#272);
#22=PLANE('',#276);
#23=PLANE('',#283);
#24=PLANE('',#288);
#25=PLANE('',#289);
#26=PLANE('',#292);
#27=FACE_OUTER_BOUND('',#40,.T.);
#28=FACE_OUTER_BOUND('',#41,.T.);
#29=FACE_OUTER_BOUND('',#42,.T.);
#30=FACE_OUTER_BOUND('',#43,.T.);
#31=FACE_OUTER_BOUND('',#44,.T.);
#32=FACE_OUTER_BOUND('',#45,.T.);
#33=FACE_OUTER_BOUND('',#46,.T.);
#34=FACE_OUTER_BOUND('',#47,.T.);
#35=FACE_OUTER_BOUND('',#51,.T.);
#36=FACE_OUTER_BOUND('',#52,.T.);
#37=FACE_OUTER_BOUND('',#53,.T.);
#38=FACE_OUTER_BOUND('',#54,.T.);
#39=FACE_OUTER_BOUND('',#55,.T.);
#40=EDGE_LOOP('',(#166,#167,#168,#169));
#41=EDGE_LOOP('',(#170,#171,#172,#173));
#42=EDGE_LOOP('',(#174,#175,#176,#177));
#43=EDGE_LOOP('',(#178,#179,#180,#181));
#44=EDGE_LOOP('',(#182,#183,#184,#185));
#45=EDGE_LOOP('',(#186,#187,#188,#189));
#46=EDGE_LOOP('',(#190,#191,#192,#193));
#47=EDGE_LOOP('',(#194,#195,#196,#197,#198,#199,#200,#201));
#48=EDGE_LOOP('',(#202));
#49=EDGE_LOOP('',(#203));
#50=EDGE_LOOP('',(#204));
#51=EDGE_LOOP('',(#205,#206,#207,#208));
#52=EDGE_LOOP('',(#209,#210,#211,#212));
#53=EDGE_LOOP('',(#213,#214,#215,#216));
#54=EDGE_LOOP('',(#217,#218,#219,#220));
#55=EDGE_LOOP('',(#221,#222,#223,#224,#225,#226,#227,#228));
#56=EDGE_LOOP('',(#229));
#57=EDGE_LOOP('',(#230));
#58=EDGE_LOOP('',(#231));
#59=LINE('',#373,#78);
#60=LINE('',#379,#79);
#61=LINE('',#384,#80);
#62=LINE('',#386,#81);
#63=LINE('',#388,#82);
#64=LINE('',#389,#83);
#65=LINE('',#395,#84);
#66=LINE('',#398,#85);
#67=LINE('',#400,#86);
#68=LINE('',#401,#87);
#69=LINE('',#406,#88);
#70=LINE('',#412,#89);
#71=LINE('',#416,#90);
#72=LINE('',#419,#91);
#73=LINE('',#425,#92);
#74=LINE('',#428,#93);
#75=LINE('',#429,#94);
#76=LINE('',#432,#95);
#77=LINE('',#433,#96);
#78=VECTOR('',#299,3.97500000000001);
#79=VECTOR('',#306,4.);
#80=VECTOR('',#311,10.);
#81=VECTOR('',#312,10.);
#82=VECTOR('',#313,10.);
#83=VECTOR('',#314,10.);
#84=VECTOR('',#321,10.);
#85=VECTOR('',#324,10.);
#86=VECTOR('',#325,10.);
#87=VECTOR('',#326,10.);
#88=VECTOR('',#331,10.);
#89=VECTOR('',#338,10.);
#90=VECTOR('',#343,10.);
#91=VECTOR('',#346,10.);
#92=VECTOR('',#353,4.);
#93=VECTOR('',#356,10.);
#94=VECTOR('',#357,10.);
#95=VECTOR('',#360,10.);
#96=VECTOR('',#361,10.);
#97=CIRCLE('',#267,3.97500000000001);
#98=CIRCLE('',#268,3.97500000000001);
#99=CIRCLE('',#270,4.);
#100=CIRCLE('',#271,4.);
#101=CIRCLE('',#274,6.);
#102=CIRCLE('',#275,6.);
#103=CIRCLE('',#278,6.);
#104=CIRCLE('',#279,6.);
#105=CIRCLE('',#281,6.);
#106=CIRCLE('',#282,6.);
#107=CIRCLE('',#284,6.);
#108=CIRCLE('',#285,4.);
#109=CIRCLE('',#287,4.);
#110=CIRCLE('',#291,6.);
#111=VERTEX_POINT('',#370);
#112=VERTEX_POINT('',#372);
#113=VERTEX_POINT('',#376);
#114=VERTEX_POINT('',#378);
#115=VERTEX_POINT('',#382);
#116=VERTEX_POINT('',#383);
#117=VERTEX_POINT('',#385);
#118=VERTEX_POINT('',#387);
#119=VERTEX_POINT('',#391);
#120=VERTEX_POINT('',#393);
#121=VERTEX_POINT('',#397);
#122=VERTEX_POINT('',#399);
#123=VERTEX_POINT('',#403);
#124=VERTEX_POINT('',#405);
#125=VERTEX_POINT('',#409);
#126=VERTEX_POINT('',#411);
#127=VERTEX_POINT('',#415);
#128=VERTEX_POINT('',#417);
#129=VERTEX_POINT('',#420);
#130=VERTEX_POINT('',#423);
#131=VERTEX_POINT('',#427);
#132=VERTEX_POINT('',#431);
#133=EDGE_CURVE('',#111,#111,#97,.F.);
#134=EDGE_CURVE('',#111,#112,#59,.T.);
#135=EDGE_CURVE('',#112,#112,#98,.T.);
#136=EDGE_CURVE('',#113,#113,#99,.T.);
#137=EDGE_CURVE('',#113,#114,#60,.T.);
#138=EDGE_CURVE('',#114,#114,#100,.T.);
#139=EDGE_CURVE('',#115,#116,#61,.T.);
#140=EDGE_CURVE('',#117,#115,#62,.T.);
#141=EDGE_CURVE('',#118,#117,#63,.T.);
#142=EDGE_CURVE('',#116,#118,#64,.T.);
#143=EDGE_CURVE('',#119,#116,#101,.T.);
#144=EDGE_CURVE('',#120,#118,#102,.T.);
#145=EDGE_CURVE('',#119,#120,#65,.T.);
#146=EDGE_CURVE('',#121,#119,#66,.T.);
#147=EDGE_CURVE('',#122,#120,#67,.T.);
#148=EDGE_CURVE('',#121,#122,#68,.T.);
#149=EDGE_CURVE('',#123,#122,#103,.T.);
#150=EDGE_CURVE('',#124,#123,#69,.T.);
#151=EDGE_CURVE('',#124,#121,#104,.T.);
#152=EDGE_CURVE('',#115,#125,#105,.T.);
#153=EDGE_CURVE('',#125,#126,#70,.T.);
#154=EDGE_CURVE('',#117,#126,#106,.T.);
#155=EDGE_CURVE('',#127,#124,#71,.T.);
#156=EDGE_CURVE('',#128,#127,#107,.T.);
#157=EDGE_CURVE('',#128,#125,#72,.T.);
#158=EDGE_CURVE('',#129,#129,#108,.T.);
#159=EDGE_CURVE('',#130,#130,#109,.T.);
#160=EDGE_CURVE('',#130,#129,#73,.T.);
#161=EDGE_CURVE('',#128,#131,#74,.T.);
#162=EDGE_CURVE('',#126,#131,#75,.T.);
#163=EDGE_CURVE('',#132,#123,#76,.T.);
#164=EDGE_CURVE('',#127,#132,#77,.T.);
#165=EDGE_CURVE('',#131,#132,#110,.T.);
#166=ORIENTED_EDGE('',*,*,#133,.F.);
#167=ORIENTED_EDGE('',*,*,#134,.T.);
#168=ORIENTED_EDGE('',*,*,#135,.F.);
#169=ORIENTED_EDGE('',*,*,#134,.F.);
#170=ORIENTED_EDGE('',*,*,#136,.F.);
#171=ORIENTED_EDGE('',*,*,#137,.T.);
#172=ORIENTED_EDGE('',*,*,#138,.T.);
#173=ORIENTED_EDGE('',*,*,#137,.F.);
#174=ORIENTED_EDGE('',*,*,#139,.F.);
#175=ORIENTED_EDGE('',*,*,#140,.F.);
#176=ORIENTED_EDGE('',*,*,#141,.F.);
#177=ORIENTED_EDGE('',*,*,#142,.F.);
#178=ORIENTED_EDGE('',*,*,#143,.T.);
#179=ORIENTED_EDGE('',*,*,#142,.T.);
#180=ORIENTED_EDGE('',*,*,#144,.F.);
#181=ORIENTED_EDGE('',*,*,#145,.F.);
#182=ORIENTED_EDGE('',*,*,#146,.T.);
#183=ORIENTED_EDGE('',*,*,#145,.T.);
#184=ORIENTED_EDGE('',*,*,#147,.F.);
#185=ORIENTED_EDGE('',*,*,#148,.F.);
#186=ORIENTED_EDGE('',*,*,#148,.T.);
#187=ORIENTED_EDGE('',*,*,#149,.F.);
#188=ORIENTED_EDGE('',*,*,#150,.F.);
#189=ORIENTED_EDGE('',*,*,#151,.T.);
#190=ORIENTED_EDGE('',*,*,#140,.T.);
#191=ORIENTED_EDGE('',*,*,#152,.T.);
#192=ORIENTED_EDGE('',*,*,#153,.T.);
#193=ORIENTED_EDGE('',*,*,#154,.F.);
#194=ORIENTED_EDGE('',*,*,#155,.F.);
#195=ORIENTED_EDGE('',*,*,#156,.F.);
#196=ORIENTED_EDGE('',*,*,#157,.T.);
#197=ORIENTED_EDGE('',*,*,#152,.F.);
#198=ORIENTED_EDGE('',*,*,#139,.T.);
#199=ORIENTED_EDGE('',*,*,#143,.F.);
#200=ORIENTED_EDGE('',*,*,#146,.F.);
#201=ORIENTED_EDGE('',*,*,#151,.F.);
#202=ORIENTED_EDGE('',*,*,#133,.T.);
#203=ORIENTED_EDGE('',*,*,#138,.F.);
#204=ORIENTED_EDGE('',*,*,#158,.F.);
#205=ORIENTED_EDGE('',*,*,#159,.F.);
#206=ORIENTED_EDGE('',*,*,#160,.T.);
#207=ORIENTED_EDGE('',*,*,#158,.T.);
#208=ORIENTED_EDGE('',*,*,#160,.F.);
#209=ORIENTED_EDGE('',*,*,#157,.F.);
#210=ORIENTED_EDGE('',*,*,#161,.T.);
#211=ORIENTED_EDGE('',*,*,#162,.F.);
#212=ORIENTED_EDGE('',*,*,#153,.F.);
#213=ORIENTED_EDGE('',*,*,#155,.T.);
#214=ORIENTED_EDGE('',*,*,#150,.T.);
#215=ORIENTED_EDGE('',*,*,#163,.F.);
#216=ORIENTED_EDGE('',*,*,#164,.F.);
#217=ORIENTED_EDGE('',*,*,#156,.T.);
#218=ORIENTED_EDGE('',*,*,#164,.T.);
#219=ORIENTED_EDGE('',*,*,#165,.F.);
#220=ORIENTED_EDGE('',*,*,#161,.F.);
#221=ORIENTED_EDGE('',*,*,#162,.T.);
#222=ORIENTED_EDGE('',*,*,#165,.T.);
#223=ORIENTED_EDGE('',*,*,#163,.T.);
#224=ORIENTED_EDGE('',*,*,#149,.T.);
#225=ORIENTED_EDGE('',*,*,#147,.T.);
#226=ORIENTED_EDGE('',*,*,#144,.T.);
#227=ORIENTED_EDGE('',*,*,#141,.T.);
#228=ORIENTED_EDGE('',*,*,#154,.T.);
#229=ORIENTED_EDGE('',*,*,#135,.T.);
#230=ORIENTED_EDGE('',*,*,#136,.T.);
#231=ORIENTED_EDGE('',*,*,#159,.T.);
#232=CYLINDRICAL_SURFACE('',#266,3.97500000000001);
#233=CYLINDRICAL_SURFACE('',#269,4.);
#234=CYLINDRICAL_SURFACE('',#273,6.);
#235=CYLINDRICAL_SURFACE('',#277,6.);
#236=CYLINDRICAL_SURFACE('',#280,6.);
#237=CYLINDRICAL_SURFACE('',#286,4.);
#238=CYLINDRICAL_SURFACE('',#290,6.);
#239=ADVANCED_FACE('',(#27),#232,.F.);
#240=ADVANCED_FACE('',(#28),#233,.F.);
#241=ADVANCED_FACE('',(#29),#21,.T.);
#242=ADVANCED_FACE('',(#30),#234,.T.);
#243=ADVANCED_FACE('',(#31),#22,.T.);
#244=ADVANCED_FACE('',(#32),#235,.T.);
#245=ADVANCED_FACE('',(#33),#236,.T.);
#246=ADVANCED_FACE('',(#34,#15,#16,#17),#23,.F.);
#247=ADVANCED_FACE('',(#35),#237,.F.);
#248=ADVANCED_FACE('',(#36),#24,.T.);
#249=ADVANCED_FACE('',(#37),#25,.T.);
#250=ADVANCED_FACE('',(#38),#238,.T.);
#251=ADVANCED_FACE('',(#39,#18,#19,#20),#26,.T.);
#252=CLOSED_SHELL('',(#239,#240,#241,#242,#243,#244,#245,#246,#247,#248,
#249,#250,#251));
#253=DERIVED_UNIT_ELEMENT(#255,1.);
#254=DERIVED_UNIT_ELEMENT(#442,-3.);
#255=(
MASS_UNIT()
NAMED_UNIT(*)
SI_UNIT(.KILO.,.GRAM.)
);
#256=DERIVED_UNIT((#253,#254));
#257=MEASURE_REPRESENTATION_ITEM('density measure',
POSITIVE_RATIO_MEASURE(7850.),#256);
#258=PROPERTY_DEFINITION_REPRESENTATION(#263,#260);
#259=PROPERTY_DEFINITION_REPRESENTATION(#264,#261);
#260=REPRESENTATION('material name',(#262),#439);
#261=REPRESENTATION('density',(#257),#439);
#262=DESCRIPTIVE_REPRESENTATION_ITEM('Stahl','Stahl');
#263=PROPERTY_DEFINITION('material property','material name',#449);
#264=PROPERTY_DEFINITION('material property','density of part',#449);
#265=AXIS2_PLACEMENT_3D('',#368,#293,#294);
#266=AXIS2_PLACEMENT_3D('',#369,#295,#296);
#267=AXIS2_PLACEMENT_3D('',#371,#297,#298);
#268=AXIS2_PLACEMENT_3D('',#374,#300,#301);
#269=AXIS2_PLACEMENT_3D('',#375,#302,#303);
#270=AXIS2_PLACEMENT_3D('',#377,#304,#305);
#271=AXIS2_PLACEMENT_3D('',#380,#307,#308);
#272=AXIS2_PLACEMENT_3D('',#381,#309,#310);
#273=AXIS2_PLACEMENT_3D('',#390,#315,#316);
#274=AXIS2_PLACEMENT_3D('',#392,#317,#318);
#275=AXIS2_PLACEMENT_3D('',#394,#319,#320);
#276=AXIS2_PLACEMENT_3D('',#396,#322,#323);
#277=AXIS2_PLACEMENT_3D('',#402,#327,#328);
#278=AXIS2_PLACEMENT_3D('',#404,#329,#330);
#279=AXIS2_PLACEMENT_3D('',#407,#332,#333);
#280=AXIS2_PLACEMENT_3D('',#408,#334,#335);
#281=AXIS2_PLACEMENT_3D('',#410,#336,#337);
#282=AXIS2_PLACEMENT_3D('',#413,#339,#340);
#283=AXIS2_PLACEMENT_3D('',#414,#341,#342);
#284=AXIS2_PLACEMENT_3D('',#418,#344,#345);
#285=AXIS2_PLACEMENT_3D('',#421,#347,#348);
#286=AXIS2_PLACEMENT_3D('',#422,#349,#350);
#287=AXIS2_PLACEMENT_3D('',#424,#351,#352);
#288=AXIS2_PLACEMENT_3D('',#426,#354,#355);
#289=AXIS2_PLACEMENT_3D('',#430,#358,#359);
#290=AXIS2_PLACEMENT_3D('',#434,#362,#363);
#291=AXIS2_PLACEMENT_3D('',#435,#364,#365);
#292=AXIS2_PLACEMENT_3D('',#436,#366,#367);
#293=DIRECTION('axis',(0.,0.,1.));
#294=DIRECTION('refdir',(1.,0.,0.));
#295=DIRECTION('center_axis',(0.,0.,1.));
#296=DIRECTION('ref_axis',(1.,0.,0.));
#297=DIRECTION('center_axis',(0.,0.,-1.));
#298=DIRECTION('ref_axis',(1.,0.,0.));
#299=DIRECTION('',(0.,0.,1.));
#300=DIRECTION('center_axis',(0.,0.,-1.));
#301=DIRECTION('ref_axis',(1.,0.,0.));
#302=DIRECTION('center_axis',(0.,0.,1.));
#303=DIRECTION('ref_axis',(1.,0.,0.));
#304=DIRECTION('center_axis',(0.,0.,-1.));
#305=DIRECTION('ref_axis',(1.,0.,0.));
#306=DIRECTION('',(0.,0.,-1.));
#307=DIRECTION('center_axis',(0.,0.,-1.));
#308=DIRECTION('ref_axis',(1.,0.,0.));
#309=DIRECTION('center_axis',(0.,1.,0.));
#310=DIRECTION('ref_axis',(-1.,0.,0.));
#311=DIRECTION('',(1.,0.,0.));
#312=DIRECTION('',(0.,0.,-1.));
#313=DIRECTION('',(-1.,0.,0.));
#314=DIRECTION('',(0.,0.,1.));
#315=DIRECTION('center_axis',(0.,0.,1.));
#316=DIRECTION('ref_axis',(1.,0.,0.));
#317=DIRECTION('center_axis',(0.,0.,1.));
#318=DIRECTION('ref_axis',(1.,0.,0.));
#319=DIRECTION('center_axis',(0.,0.,1.));
#320=DIRECTION('ref_axis',(1.,0.,0.));
#321=DIRECTION('',(0.,0.,1.));
#322=DIRECTION('center_axis',(0.,-1.,0.));
#323=DIRECTION('ref_axis',(1.,0.,0.));
#324=DIRECTION('',(1.,0.,0.));
#325=DIRECTION('',(1.,0.,0.));
#326=DIRECTION('',(0.,0.,1.));
#327=DIRECTION('center_axis',(0.,0.,1.));
#328=DIRECTION('ref_axis',(1.,0.,0.));
#329=DIRECTION('center_axis',(0.,0.,1.));
#330=DIRECTION('ref_axis',(1.,0.,0.));
#331=DIRECTION('',(0.,0.,1.));
#332=DIRECTION('center_axis',(0.,0.,1.));
#333=DIRECTION('ref_axis',(1.,0.,0.));
#334=DIRECTION('center_axis',(0.,0.,1.));
#335=DIRECTION('ref_axis',(1.,0.,0.));
#336=DIRECTION('center_axis',(0.,0.,1.));
#337=DIRECTION('ref_axis',(1.,0.,0.));
#338=DIRECTION('',(0.,0.,1.));
#339=DIRECTION('center_axis',(0.,0.,1.));
#340=DIRECTION('ref_axis',(1.,0.,0.));
#341=DIRECTION('center_axis',(0.,0.,1.));
#342=DIRECTION('ref_axis',(1.,0.,0.));
#343=DIRECTION('',(1.,0.,0.));
#344=DIRECTION('center_axis',(0.,0.,1.));
#345=DIRECTION('ref_axis',(1.,0.,0.));
#346=DIRECTION('',(1.,0.,0.));
#347=DIRECTION('center_axis',(0.,0.,-1.));
#348=DIRECTION('ref_axis',(1.,0.,0.));
#349=DIRECTION('center_axis',(0.,0.,1.));
#350=DIRECTION('ref_axis',(1.,0.,0.));
#351=DIRECTION('center_axis',(0.,0.,-1.));
#352=DIRECTION('ref_axis',(1.,0.,0.));
#353=DIRECTION('',(0.,0.,-1.));
#354=DIRECTION('center_axis',(0.,1.,0.));
#355=DIRECTION('ref_axis',(-1.,0.,0.));
#356=DIRECTION('',(0.,0.,1.));
#357=DIRECTION('',(-1.,0.,0.));
#358=DIRECTION('center_axis',(0.,-1.,0.));
#359=DIRECTION('ref_axis',(1.,0.,0.));
#360=DIRECTION('',(1.,0.,0.));
#361=DIRECTION('',(0.,0.,1.));
#362=DIRECTION('center_axis',(0.,0.,1.));
#363=DIRECTION('ref_axis',(-1.,1.22464679914735E-16,0.));
#364=DIRECTION('center_axis',(0.,0.,1.));
#365=DIRECTION('ref_axis',(1.,0.,0.));
#366=DIRECTION('center_axis',(0.,0.,1.));
#367=DIRECTION('ref_axis',(1.,0.,0.));
#368=CARTESIAN_POINT('',(0.,0.,0.));
#369=CARTESIAN_POINT('Origin',(105.865717920699,-72.2580710224086,4.44089209850063E-15));
#370=CARTESIAN_POINT('',(101.890717920699,-72.2580710224086,15.));
#371=CARTESIAN_POINT('Origin',(105.865717920699,-72.2580710224086,15.));
#372=CARTESIAN_POINT('',(101.890717920699,-72.2580710224086,21.));
#373=CARTESIAN_POINT('',(101.890717920699,-72.2580710224086,4.44089209850063E-15));
#374=CARTESIAN_POINT('Origin',(105.865717920699,-72.2580710224086,21.));
#375=CARTESIAN_POINT('Origin',(172.947752920699,-72.2580710224086,15.));
#376=CARTESIAN_POINT('',(168.947752920699,-72.2580710224086,21.));
#377=CARTESIAN_POINT('Origin',(172.947752920699,-72.2580710224086,21.));
#378=CARTESIAN_POINT('',(168.947752920699,-72.2580710224086,15.));
#379=CARTESIAN_POINT('',(168.947752920699,-72.2580710224086,15.));
#380=CARTESIAN_POINT('Origin',(172.947752920699,-72.2580710224086,15.));
#381=CARTESIAN_POINT('Origin',(168.475616965699,-68.2580710224086,15.));
#382=CARTESIAN_POINT('',(110.337853875698,-68.2580710224086,15.));
#383=CARTESIAN_POINT('',(168.475616965699,-68.2580710224086,15.));
#384=CARTESIAN_POINT('',(142.947752920699,-68.2580710224086,15.));
#385=CARTESIAN_POINT('',(110.337853875698,-68.2580710224086,21.));
#386=CARTESIAN_POINT('',(110.337853875698,-68.2580710224086,15.));
#387=CARTESIAN_POINT('',(168.475616965699,-68.2580710224086,21.));
#388=CARTESIAN_POINT('',(142.947752920699,-68.2580710224086,21.));
#389=CARTESIAN_POINT('',(168.475616965699,-68.2580710224086,15.));
#390=CARTESIAN_POINT('Origin',(172.947752920699,-72.2580710224086,15.));
#391=CARTESIAN_POINT('',(168.475616965699,-76.2580710224086,15.));
#392=CARTESIAN_POINT('Origin',(172.947752920699,-72.2580710224086,15.));
#393=CARTESIAN_POINT('',(168.475616965699,-76.2580710224086,21.));
#394=CARTESIAN_POINT('Origin',(172.947752920699,-72.2580710224086,21.));
#395=CARTESIAN_POINT('',(168.475616965699,-76.2580710224086,15.));
#396=CARTESIAN_POINT('Origin',(147.419888875698,-76.2580710224086,15.));
#397=CARTESIAN_POINT('',(110.337853875698,-76.2580710224086,15.));
#398=CARTESIAN_POINT('',(142.947752920699,-76.2580710224086,15.));
#399=CARTESIAN_POINT('',(110.337853875698,-76.2580710224086,21.));
#400=CARTESIAN_POINT('',(142.947752920699,-76.2580710224086,21.));
#401=CARTESIAN_POINT('',(110.337853875698,-76.2580710224086,15.));
#402=CARTESIAN_POINT('Origin',(105.865717920699,-72.2580710224086,15.));
#403=CARTESIAN_POINT('',(101.393581965699,-76.2580710224086,21.));
#404=CARTESIAN_POINT('Origin',(105.865717920699,-72.2580710224086,21.));
#405=CARTESIAN_POINT('',(101.393581965699,-76.2580710224086,15.));
#406=CARTESIAN_POINT('',(101.393581965699,-76.2580710224086,15.));
#407=CARTESIAN_POINT('Origin',(105.865717920699,-72.2580710224086,15.));
#408=CARTESIAN_POINT('Origin',(105.865717920699,-72.2580710224086,15.));
#409=CARTESIAN_POINT('',(101.393581965699,-68.2580710224086,15.));
#410=CARTESIAN_POINT('Origin',(105.865717920699,-72.2580710224086,15.));
#411=CARTESIAN_POINT('',(101.393581965699,-68.2580710224086,21.));
#412=CARTESIAN_POINT('',(101.393581965699,-68.2580710224086,15.));
#413=CARTESIAN_POINT('Origin',(105.865717920699,-72.2580710224086,21.));
#414=CARTESIAN_POINT('Origin',(90.8657179206986,-72.2580710224086,15.));
#415=CARTESIAN_POINT('',(43.2558188756982,-76.2580710224086,15.));
#416=CARTESIAN_POINT('',(75.8657179206986,-76.2580710224086,15.));
#417=CARTESIAN_POINT('',(43.2558188756982,-68.2580710224086,15.));
#418=CARTESIAN_POINT('Origin',(38.7836829206986,-72.2580710224086,15.));
#419=CARTESIAN_POINT('',(75.8657179206986,-68.2580710224086,15.));
#420=CARTESIAN_POINT('',(34.7836829206986,-72.2580710224086,15.));
#421=CARTESIAN_POINT('Origin',(38.7836829206986,-72.2580710224086,15.));
#422=CARTESIAN_POINT('Origin',(38.7836829206986,-72.2580710224086,15.));
#423=CARTESIAN_POINT('',(34.7836829206986,-72.2580710224086,21.));
#424=CARTESIAN_POINT('Origin',(38.7836829206986,-72.2580710224086,21.));
#425=CARTESIAN_POINT('',(34.7836829206986,-72.2580710224086,15.));
#426=CARTESIAN_POINT('Origin',(101.393581965699,-68.2580710224086,15.));
#427=CARTESIAN_POINT('',(43.2558188756982,-68.2580710224086,21.));
#428=CARTESIAN_POINT('',(43.2558188756982,-68.2580710224086,15.));
#429=CARTESIAN_POINT('',(75.8657179206986,-68.2580710224086,21.));
#430=CARTESIAN_POINT('Origin',(80.3378538756982,-76.2580710224086,15.));
#431=CARTESIAN_POINT('',(43.2558188756982,-76.2580710224086,21.));
#432=CARTESIAN_POINT('',(75.8657179206986,-76.2580710224086,21.));
#433=CARTESIAN_POINT('',(43.2558188756982,-76.2580710224086,15.));
#434=CARTESIAN_POINT('Origin',(38.7836829206986,-72.2580710224086,15.));
#435=CARTESIAN_POINT('Origin',(38.7836829206986,-72.2580710224086,21.));
#436=CARTESIAN_POINT('Origin',(90.8657179206986,-72.2580710224086,21.));
#437=UNCERTAINTY_MEASURE_WITH_UNIT(LENGTH_MEASURE(0.01),#441,
'DISTANCE_ACCURACY_VALUE',
'Maximum model space distance between geometric entities at asserted c
onnectivities');
#438=UNCERTAINTY_MEASURE_WITH_UNIT(LENGTH_MEASURE(0.01),#441,
'DISTANCE_ACCURACY_VALUE',
'Maximum model space distance between geometric entities at asserted c
onnectivities');
#439=(
GEOMETRIC_REPRESENTATION_CONTEXT(3)
GLOBAL_UNCERTAINTY_ASSIGNED_CONTEXT((#437))
GLOBAL_UNIT_ASSIGNED_CONTEXT((#441,#443,#444))
REPRESENTATION_CONTEXT('','3D')
);
#440=(
GEOMETRIC_REPRESENTATION_CONTEXT(3)
GLOBAL_UNCERTAINTY_ASSIGNED_CONTEXT((#438))
GLOBAL_UNIT_ASSIGNED_CONTEXT((#441,#443,#444))
REPRESENTATION_CONTEXT('','3D')
);
#441=(
LENGTH_UNIT()
NAMED_UNIT(*)
SI_UNIT(.MILLI.,.METRE.)
);
#442=(
LENGTH_UNIT()
NAMED_UNIT(*)
SI_UNIT($,.METRE.)
);
#443=(
NAMED_UNIT(*)
PLANE_ANGLE_UNIT()
SI_UNIT($,.RADIAN.)
);
#444=(
NAMED_UNIT(*)
SI_UNIT($,.STERADIAN.)
SOLID_ANGLE_UNIT()
);
#445=SHAPE_DEFINITION_REPRESENTATION(#446,#447);
#446=PRODUCT_DEFINITION_SHAPE('',$,#449);
#447=SHAPE_REPRESENTATION('',(#265),#439);
#448=PRODUCT_DEFINITION_CONTEXT('part definition',#453,'design');
#449=PRODUCT_DEFINITION('kreuz_gelenk1','kreuz_gelenk1',#450,#448);
#450=PRODUCT_DEFINITION_FORMATION('',$,#455);
#451=PRODUCT_RELATED_PRODUCT_CATEGORY('kreuz_gelenk1','kreuz_gelenk1',(#455));
#452=APPLICATION_PROTOCOL_DEFINITION('international standard',
'automotive_design',2009,#453);
#453=APPLICATION_CONTEXT(
'Core Data for Automotive Mechanical Design Process');
#454=PRODUCT_CONTEXT('part definition',#453,'mechanical');
#455=PRODUCT('kreuz_gelenk1','kreuz_gelenk1',$,(#454));
#456=PRESENTATION_STYLE_ASSIGNMENT((#457));
#457=SURFACE_STYLE_USAGE(.BOTH.,#458);
#458=SURFACE_SIDE_STYLE('',(#459));
#459=SURFACE_STYLE_FILL_AREA(#460);
#460=FILL_AREA_STYLE('Stahl - satiniert',(#461));
#461=FILL_AREA_STYLE_COLOUR('Stahl - satiniert',#462);
#462=COLOUR_RGB('Stahl - satiniert',0.627450980392157,0.627450980392157,
0.627450980392157);
ENDSEC;
END-ISO-10303-21;
