ISO-10303-21;
HEADER;
/* Generated by software containing ST-Developer
 * from STEP Tools, Inc. (www.steptools.com) 
 */

FILE_DESCRIPTION(
/* description */ (''),
/* implementation_level */ '2;1');

FILE_NAME(
/* name */ 'treiber_gelenk.step',
/* time_stamp */ '2026-05-24T04:13:54+02:00',
/* author */ (''),
/* organization */ (''),
/* preprocessor_version */ 'ST-DEVELOPER v20.1',
/* originating_system */ 'Autodesk Translation Framework v15.8.0.0',
/* authorisation */ '');

FILE_SCHEMA (('AUTOMOTIVE_DESIGN { 1 0 10303 214 3 1 1 }'));
ENDSEC;

DATA;
#10=MECHANICAL_DESIGN_GEOMETRIC_PRESENTATION_REPRESENTATION('',(#13),#265);
#11=SHAPE_REPRESENTATION_RELATIONSHIP('SRR','None',#272,#12);
#12=ADVANCED_BREP_SHAPE_REPRESENTATION('',(#14),#264);
#13=STYLED_ITEM('',(#281),#14);
#14=MANIFOLD_SOLID_BREP('treiber_gelenk',#149);
#15=FACE_BOUND('',#44,.T.);
#16=FACE_BOUND('',#45,.T.);
#17=FACE_BOUND('',#49,.T.);
#18=FACE_BOUND('',#50,.T.);
#19=CIRCLE('',#166,6.00000000000001);
#20=CIRCLE('',#167,6.00000000000001);
#21=CIRCLE('',#169,4.);
#22=CIRCLE('',#170,4.);
#23=CIRCLE('',#172,6.00000000000001);
#24=CIRCLE('',#173,4.);
#25=CIRCLE('',#175,4.);
#26=CIRCLE('',#177,6.00000000000001);
#27=CYLINDRICAL_SURFACE('',#165,6.00000000000001);
#28=CYLINDRICAL_SURFACE('',#168,4.);
#29=CYLINDRICAL_SURFACE('',#174,4.);
#30=CYLINDRICAL_SURFACE('',#176,6.00000000000001);
#31=FACE_OUTER_BOUND('',#39,.T.);
#32=FACE_OUTER_BOUND('',#40,.T.);
#33=FACE_OUTER_BOUND('',#41,.T.);
#34=FACE_OUTER_BOUND('',#42,.T.);
#35=FACE_OUTER_BOUND('',#43,.T.);
#36=FACE_OUTER_BOUND('',#46,.T.);
#37=FACE_OUTER_BOUND('',#47,.T.);
#38=FACE_OUTER_BOUND('',#48,.T.);
#39=EDGE_LOOP('',(#101,#102,#103,#104));
#40=EDGE_LOOP('',(#105,#106,#107,#108));
#41=EDGE_LOOP('',(#109,#110,#111,#112));
#42=EDGE_LOOP('',(#113,#114,#115,#116));
#43=EDGE_LOOP('',(#117,#118,#119,#120));
#44=EDGE_LOOP('',(#121));
#45=EDGE_LOOP('',(#122));
#46=EDGE_LOOP('',(#123,#124,#125,#126));
#47=EDGE_LOOP('',(#127,#128,#129,#130));
#48=EDGE_LOOP('',(#131,#132,#133,#134));
#49=EDGE_LOOP('',(#135));
#50=EDGE_LOOP('',(#136));
#51=LINE('',#227,#61);
#52=LINE('',#229,#62);
#53=LINE('',#231,#63);
#54=LINE('',#232,#64);
#55=LINE('',#236,#65);
#56=LINE('',#238,#66);
#57=LINE('',#240,#67);
#58=LINE('',#241,#68);
#59=LINE('',#249,#69);
#60=LINE('',#257,#70);
#61=VECTOR('',#183,10.);
#62=VECTOR('',#184,10.);
#63=VECTOR('',#185,10.);
#64=VECTOR('',#186,10.);
#65=VECTOR('',#189,10.);
#66=VECTOR('',#190,10.);
#67=VECTOR('',#191,10.);
#68=VECTOR('',#192,10.);
#69=VECTOR('',#203,4.);
#70=VECTOR('',#214,4.);
#71=VERTEX_POINT('',#225);
#72=VERTEX_POINT('',#226);
#73=VERTEX_POINT('',#228);
#74=VERTEX_POINT('',#230);
#75=VERTEX_POINT('',#234);
#76=VERTEX_POINT('',#235);
#77=VERTEX_POINT('',#237);
#78=VERTEX_POINT('',#239);
#79=VERTEX_POINT('',#246);
#80=VERTEX_POINT('',#248);
#81=VERTEX_POINT('',#253);
#82=VERTEX_POINT('',#256);
#83=EDGE_CURVE('',#71,#72,#51,.T.);
#84=EDGE_CURVE('',#73,#71,#52,.T.);
#85=EDGE_CURVE('',#74,#73,#53,.T.);
#86=EDGE_CURVE('',#72,#74,#54,.T.);
#87=EDGE_CURVE('',#75,#76,#55,.T.);
#88=EDGE_CURVE('',#77,#76,#56,.T.);
#89=EDGE_CURVE('',#78,#77,#57,.T.);
#90=EDGE_CURVE('',#75,#78,#58,.T.);
#91=EDGE_CURVE('',#71,#75,#19,.T.);
#92=EDGE_CURVE('',#78,#73,#20,.T.);
#93=EDGE_CURVE('',#79,#79,#21,.T.);
#94=EDGE_CURVE('',#79,#80,#59,.T.);
#95=EDGE_CURVE('',#80,#80,#22,.T.);
#96=EDGE_CURVE('',#74,#77,#23,.T.);
#97=EDGE_CURVE('',#81,#81,#24,.T.);
#98=EDGE_CURVE('',#81,#82,#60,.T.);
#99=EDGE_CURVE('',#82,#82,#25,.T.);
#100=EDGE_CURVE('',#76,#72,#26,.T.);
#101=ORIENTED_EDGE('',*,*,#83,.F.);
#102=ORIENTED_EDGE('',*,*,#84,.F.);
#103=ORIENTED_EDGE('',*,*,#85,.F.);
#104=ORIENTED_EDGE('',*,*,#86,.F.);
#105=ORIENTED_EDGE('',*,*,#87,.T.);
#106=ORIENTED_EDGE('',*,*,#88,.F.);
#107=ORIENTED_EDGE('',*,*,#89,.F.);
#108=ORIENTED_EDGE('',*,*,#90,.F.);
#109=ORIENTED_EDGE('',*,*,#84,.T.);
#110=ORIENTED_EDGE('',*,*,#91,.T.);
#111=ORIENTED_EDGE('',*,*,#90,.T.);
#112=ORIENTED_EDGE('',*,*,#92,.T.);
#113=ORIENTED_EDGE('',*,*,#93,.T.);
#114=ORIENTED_EDGE('',*,*,#94,.T.);
#115=ORIENTED_EDGE('',*,*,#95,.T.);
#116=ORIENTED_EDGE('',*,*,#94,.F.);
#117=ORIENTED_EDGE('',*,*,#85,.T.);
#118=ORIENTED_EDGE('',*,*,#92,.F.);
#119=ORIENTED_EDGE('',*,*,#89,.T.);
#120=ORIENTED_EDGE('',*,*,#96,.F.);
#121=ORIENTED_EDGE('',*,*,#93,.F.);
#122=ORIENTED_EDGE('',*,*,#97,.F.);
#123=ORIENTED_EDGE('',*,*,#97,.T.);
#124=ORIENTED_EDGE('',*,*,#98,.T.);
#125=ORIENTED_EDGE('',*,*,#99,.T.);
#126=ORIENTED_EDGE('',*,*,#98,.F.);
#127=ORIENTED_EDGE('',*,*,#86,.T.);
#128=ORIENTED_EDGE('',*,*,#96,.T.);
#129=ORIENTED_EDGE('',*,*,#88,.T.);
#130=ORIENTED_EDGE('',*,*,#100,.T.);
#131=ORIENTED_EDGE('',*,*,#100,.F.);
#132=ORIENTED_EDGE('',*,*,#87,.F.);
#133=ORIENTED_EDGE('',*,*,#91,.F.);
#134=ORIENTED_EDGE('',*,*,#83,.T.);
#135=ORIENTED_EDGE('',*,*,#95,.F.);
#136=ORIENTED_EDGE('',*,*,#99,.F.);
#137=PLANE('',#163);
#138=PLANE('',#164);
#139=PLANE('',#171);
#140=PLANE('',#178);
#141=ADVANCED_FACE('',(#31),#137,.T.);
#142=ADVANCED_FACE('',(#32),#138,.T.);
#143=ADVANCED_FACE('',(#33),#27,.T.);
#144=ADVANCED_FACE('',(#34),#28,.F.);
#145=ADVANCED_FACE('',(#35,#15,#16),#139,.T.);
#146=ADVANCED_FACE('',(#36),#29,.F.);
#147=ADVANCED_FACE('',(#37),#30,.T.);
#148=ADVANCED_FACE('',(#38,#17,#18),#140,.F.);
#149=CLOSED_SHELL('',(#141,#142,#143,#144,#145,#146,#147,#148));
#150=DERIVED_UNIT_ELEMENT(#152,1.);
#151=DERIVED_UNIT_ELEMENT(#267,-3.);
#152=(
MASS_UNIT()
NAMED_UNIT(*)
SI_UNIT(.KILO.,.GRAM.)
);
#153=DERIVED_UNIT((#150,#151));
#154=MEASURE_REPRESENTATION_ITEM('density measure',
POSITIVE_RATIO_MEASURE(7850.),#153);
#155=PROPERTY_DEFINITION_REPRESENTATION(#160,#157);
#156=PROPERTY_DEFINITION_REPRESENTATION(#161,#158);
#157=REPRESENTATION('material name',(#159),#264);
#158=REPRESENTATION('density',(#154),#264);
#159=DESCRIPTIVE_REPRESENTATION_ITEM('Stahl','Stahl');
#160=PROPERTY_DEFINITION('material property','material name',#274);
#161=PROPERTY_DEFINITION('material property','density of part',#274);
#162=AXIS2_PLACEMENT_3D('',#223,#179,#180);
#163=AXIS2_PLACEMENT_3D('',#224,#181,#182);
#164=AXIS2_PLACEMENT_3D('',#233,#187,#188);
#165=AXIS2_PLACEMENT_3D('',#242,#193,#194);
#166=AXIS2_PLACEMENT_3D('',#243,#195,#196);
#167=AXIS2_PLACEMENT_3D('',#244,#197,#198);
#168=AXIS2_PLACEMENT_3D('',#245,#199,#200);
#169=AXIS2_PLACEMENT_3D('',#247,#201,#202);
#170=AXIS2_PLACEMENT_3D('',#250,#204,#205);
#171=AXIS2_PLACEMENT_3D('',#251,#206,#207);
#172=AXIS2_PLACEMENT_3D('',#252,#208,#209);
#173=AXIS2_PLACEMENT_3D('',#254,#210,#211);
#174=AXIS2_PLACEMENT_3D('',#255,#212,#213);
#175=AXIS2_PLACEMENT_3D('',#258,#215,#216);
#176=AXIS2_PLACEMENT_3D('',#259,#217,#218);
#177=AXIS2_PLACEMENT_3D('',#260,#219,#220);
#178=AXIS2_PLACEMENT_3D('',#261,#221,#222);
#179=DIRECTION('axis',(0.,0.,1.));
#180=DIRECTION('refdir',(1.,0.,0.));
#181=DIRECTION('center_axis',(-0.90630778703665,0.422618261740699,0.));
#182=DIRECTION('ref_axis',(-0.422618261740699,-0.90630778703665,0.));
#183=DIRECTION('',(0.422618261740699,0.90630778703665,0.));
#184=DIRECTION('',(0.,0.,-1.));
#185=DIRECTION('',(-0.422618261740699,-0.90630778703665,0.));
#186=DIRECTION('',(0.,0.,1.));
#187=DIRECTION('center_axis',(0.90630778703665,-0.422618261740699,0.));
#188=DIRECTION('ref_axis',(0.422618261740699,0.90630778703665,0.));
#189=DIRECTION('',(0.422618261740699,0.90630778703665,0.));
#190=DIRECTION('',(0.,0.,-1.));
#191=DIRECTION('',(0.422618261740699,0.90630778703665,0.));
#192=DIRECTION('',(0.,0.,1.));
#193=DIRECTION('center_axis',(0.,0.,1.));
#194=DIRECTION('ref_axis',(-0.4226182617407,-0.90630778703665,0.));
#195=DIRECTION('center_axis',(0.,0.,1.));
#196=DIRECTION('ref_axis',(0.422618261740699,0.90630778703665,0.));
#197=DIRECTION('center_axis',(0.,0.,-1.));
#198=DIRECTION('ref_axis',(0.422618261740699,0.90630778703665,0.));
#199=DIRECTION('center_axis',(0.,0.,1.));
#200=DIRECTION('ref_axis',(0.422618261740699,0.90630778703665,0.));
#201=DIRECTION('center_axis',(0.,0.,1.));
#202=DIRECTION('ref_axis',(0.422618261740699,0.90630778703665,0.));
#203=DIRECTION('',(0.,0.,-1.));
#204=DIRECTION('center_axis',(0.,0.,-1.));
#205=DIRECTION('ref_axis',(0.422618261740699,0.90630778703665,0.));
#206=DIRECTION('center_axis',(0.,0.,1.));
#207=DIRECTION('ref_axis',(0.422618261740699,0.90630778703665,0.));
#208=DIRECTION('center_axis',(0.,0.,-1.));
#209=DIRECTION('ref_axis',(0.422618261740699,0.90630778703665,0.));
#210=DIRECTION('center_axis',(0.,0.,1.));
#211=DIRECTION('ref_axis',(0.422618261740699,0.90630778703665,0.));
#212=DIRECTION('center_axis',(0.,0.,1.));
#213=DIRECTION('ref_axis',(0.422618261740699,0.90630778703665,0.));
#214=DIRECTION('',(0.,0.,-1.));
#215=DIRECTION('center_axis',(0.,0.,-1.));
#216=DIRECTION('ref_axis',(0.422618261740699,0.90630778703665,0.));
#217=DIRECTION('center_axis',(0.,0.,1.));
#218=DIRECTION('ref_axis',(0.422618261740699,0.90630778703665,0.));
#219=DIRECTION('center_axis',(0.,0.,1.));
#220=DIRECTION('ref_axis',(0.422618261740699,0.90630778703665,0.));
#221=DIRECTION('center_axis',(0.,0.,1.));
#222=DIRECTION('ref_axis',(0.422618261740699,0.90630778703665,0.));
#223=CARTESIAN_POINT('',(0.,0.,0.));
#224=CARTESIAN_POINT('Origin',(86.7960086307513,-100.658627719504,15.));
#225=CARTESIAN_POINT('',(77.8974734256703,-119.741598049198,15.));
#226=CARTESIAN_POINT('',(86.7960086307513,-100.658627719504,15.));
#227=CARTESIAN_POINT('',(76.0074671021003,-123.794729689901,15.));
#228=CARTESIAN_POINT('',(77.8974734256703,-119.741598049198,21.));
#229=CARTESIAN_POINT('',(77.8974734256703,-119.741598049198,15.));
#230=CARTESIAN_POINT('',(86.7960086307513,-100.658627719504,21.));
#231=CARTESIAN_POINT('',(76.0074671021003,-123.794729689901,21.));
#232=CARTESIAN_POINT('',(86.7960086307513,-100.658627719504,15.));
#233=CARTESIAN_POINT('Origin',(85.1479357219635,-123.122544143124,15.));
#234=CARTESIAN_POINT('',(85.1479357219635,-123.122544143124,15.));
#235=CARTESIAN_POINT('',(94.0464709270445,-104.03957381343,15.));
#236=CARTESIAN_POINT('',(83.2579293983935,-127.175675783827,15.));
#237=CARTESIAN_POINT('',(94.0464709270445,-104.03957381343,21.));
#238=CARTESIAN_POINT('',(94.0464709270445,-104.03957381343,15.));
#239=CARTESIAN_POINT('',(85.1479357219635,-123.122544143124,21.));
#240=CARTESIAN_POINT('',(83.2579293983935,-127.175675783827,21.));
#241=CARTESIAN_POINT('',(85.1479357219635,-123.122544143124,15.));
#242=CARTESIAN_POINT('Origin',(79.6326982502469,-125.485202736864,15.));
#243=CARTESIAN_POINT('Origin',(79.6326982502469,-125.485202736864,15.));
#244=CARTESIAN_POINT('Origin',(79.6326982502469,-125.485202736864,21.));
#245=CARTESIAN_POINT('Origin',(79.6326982502469,-125.485202736864,15.));
#246=CARTESIAN_POINT('',(77.9422252032841,-129.11043388501,21.));
#247=CARTESIAN_POINT('Origin',(79.6326982502469,-125.485202736864,21.));
#248=CARTESIAN_POINT('',(77.9422252032841,-129.11043388501,15.));
#249=CARTESIAN_POINT('',(77.9422252032841,-129.11043388501,15.));
#250=CARTESIAN_POINT('Origin',(79.6326982502469,-125.485202736864,15.));
#251=CARTESIAN_POINT('Origin',(92.3112461024679,-98.2959691257642,21.));
#252=CARTESIAN_POINT('Origin',(92.3112461024679,-98.2959691257642,21.));
#253=CARTESIAN_POINT('',(90.6207730555051,-101.921200273911,21.));
#254=CARTESIAN_POINT('Origin',(92.3112461024679,-98.2959691257642,21.));
#255=CARTESIAN_POINT('Origin',(92.3112461024679,-98.2959691257642,15.));
#256=CARTESIAN_POINT('',(90.6207730555051,-101.921200273911,15.));
#257=CARTESIAN_POINT('',(90.6207730555051,-101.921200273911,15.));
#258=CARTESIAN_POINT('Origin',(92.3112461024679,-98.2959691257642,15.));
#259=CARTESIAN_POINT('Origin',(92.3112461024679,-98.2959691257642,15.));
#260=CARTESIAN_POINT('Origin',(92.3112461024679,-98.2959691257642,15.));
#261=CARTESIAN_POINT('Origin',(92.3112461024679,-98.2959691257642,15.));
#262=UNCERTAINTY_MEASURE_WITH_UNIT(LENGTH_MEASURE(0.01),#266,
'DISTANCE_ACCURACY_VALUE',
'Maximum model space distance between geometric entities at asserted c
onnectivities');
#263=UNCERTAINTY_MEASURE_WITH_UNIT(LENGTH_MEASURE(0.01),#266,
'DISTANCE_ACCURACY_VALUE',
'Maximum model space distance between geometric entities at asserted c
onnectivities');
#264=(
GEOMETRIC_REPRESENTATION_CONTEXT(3)
GLOBAL_UNCERTAINTY_ASSIGNED_CONTEXT((#262))
GLOBAL_UNIT_ASSIGNED_CONTEXT((#266,#268,#269))
REPRESENTATION_CONTEXT('','3D')
);
#265=(
GEOMETRIC_REPRESENTATION_CONTEXT(3)
GLOBAL_UNCERTAINTY_ASSIGNED_CONTEXT((#263))
GLOBAL_UNIT_ASSIGNED_CONTEXT((#266,#268,#269))
REPRESENTATION_CONTEXT('','3D')
);
#266=(
LENGTH_UNIT()
NAMED_UNIT(*)
SI_UNIT(.MILLI.,.METRE.)
);
#267=(
LENGTH_UNIT()
NAMED_UNIT(*)
SI_UNIT($,.METRE.)
);
#268=(
NAMED_UNIT(*)
PLANE_ANGLE_UNIT()
SI_UNIT($,.RADIAN.)
);
#269=(
NAMED_UNIT(*)
SI_UNIT($,.STERADIAN.)
SOLID_ANGLE_UNIT()
);
#270=SHAPE_DEFINITION_REPRESENTATION(#271,#272);
#271=PRODUCT_DEFINITION_SHAPE('',$,#274);
#272=SHAPE_REPRESENTATION('',(#162),#264);
#273=PRODUCT_DEFINITION_CONTEXT('part definition',#278,'design');
#274=PRODUCT_DEFINITION('treiber_gelenk','treiber_gelenk',#275,#273);
#275=PRODUCT_DEFINITION_FORMATION('',$,#280);
#276=PRODUCT_RELATED_PRODUCT_CATEGORY('treiber_gelenk','treiber_gelenk',
(#280));
#277=APPLICATION_PROTOCOL_DEFINITION('international standard',
'automotive_design',2009,#278);
#278=APPLICATION_CONTEXT(
'Core Data for Automotive Mechanical Design Process');
#279=PRODUCT_CONTEXT('part definition',#278,'mechanical');
#280=PRODUCT('treiber_gelenk','treiber_gelenk',$,(#279));
#281=PRESENTATION_STYLE_ASSIGNMENT((#282));
#282=SURFACE_STYLE_USAGE(.BOTH.,#283);
#283=SURFACE_SIDE_STYLE('',(#284));
#284=SURFACE_STYLE_FILL_AREA(#285);
#285=FILL_AREA_STYLE('Stahl - satiniert',(#286));
#286=FILL_AREA_STYLE_COLOUR('Stahl - satiniert',#287);
#287=COLOUR_RGB('Stahl - satiniert',0.627450980392157,0.627450980392157,
0.627450980392157);
ENDSEC;
END-ISO-10303-21;
